/* XPM */
static char *a7a8df4254934e7ad33c235793c294763H1co1fyD3GKhr1U[] = {
/* columns rows colors chars-per-pixel */
"64 64 245 2 ",
"   c #161216",
".  c #361011",
"X  c #3B1828",
"o  c #2D1C24",
"O  c #1A282E",
"+  c #212A33",
"@  c #24293A",
"#  c #373238",
"$  c #2D2B30",
"%  c #131A2D",
"&  c #570807",
"*  c #4C1310",
"=  c #6C1703",
"-  c #751909",
";  c #62170E",
":  c #5A241B",
">  c #542C1B",
",  c #68241D",
"<  c #772A1A",
"1  c #77260C",
"2  c #4B1D22",
"3  c #7E1E20",
"4  c #4B2C2A",
"5  c #482A27",
"6  c #5B2624",
"7  c #542A25",
"8  c #5C2925",
"9  c #552D2A",
"0  c #5B2D2A",
"q  c #572524",
"w  c #46332E",
"e  c #4A342E",
"r  c #4C382F",
"t  c #52332D",
"y  c #5B332D",
"u  c #583C2E",
"i  c #4A3631",
"p  c #4E3A33",
"a  c #493733",
"s  c #553632",
"d  c #5C3532",
"f  c #533C35",
"g  c #5B3C35",
"h  c #533E39",
"j  c #5B3E39",
"k  c #622623",
"l  c #622B26",
"z  c #6B2B26",
"x  c #632C29",
"c  c #6B2D2B",
"v  c #692522",
"b  c #722C25",
"n  c #732D2A",
"m  c #7A2C27",
"M  c #64322D",
"N  c #6B332B",
"B  c #6B3528",
"V  c #7C3326",
"C  c #74322B",
"Z  c #7B342C",
"A  c #76392C",
"S  c #643632",
"D  c #6A3531",
"F  c #643B34",
"G  c #6C3C35",
"H  c #633E39",
"J  c #6C3F39",
"K  c #743B33",
"L  c #753831",
"P  c #672E32",
"I  c #1B452F",
"U  c #224C38",
"Y  c #544137",
"T  c #56423B",
"R  c #5A443D",
"E  c #5C493E",
"W  c #5E4137",
"Q  c #4F4138",
"!  c #634036",
"~  c #63443C",
"^  c #6A433C",
"/  c #624A3F",
"(  c #6B493E",
")  c #6D4035",
"_  c #724135",
"`  c #72423B",
"'  c #7A4439",
"]  c #75493C",
"[  c #73472C",
"{  c #282F42",
"}  c #2B3646",
"|  c #363B55",
" . c #373648",
".. c #403E41",
"X. c #33564D",
"o. c #394459",
"O. c #395758",
"+. c #3C4964",
"@. c #4A464B",
"#. c #5B4741",
"$. c #5E4A42",
"%. c #574440",
"&. c #454756",
"*. c #565753",
"=. c #624641",
"-. c #624D44",
";. c #6B4C43",
":. c #644E49",
">. c #6A4B44",
",. c #724D44",
"<. c #645146",
"1. c #695246",
"2. c #665249",
"3. c #6A544A",
"4. c #6D594D",
"5. c #6D5B45",
"6. c #71554B",
"7. c #715A4E",
"8. c #765548",
"9. c #6E5A51",
"0. c #695751",
"q. c #725B51",
"w. c #705750",
"e. c #7A6153",
"r. c #464D68",
"t. c #475469",
"y. c #4D5E76",
"u. c #545A6C",
"i. c #53637B",
"p. c #576779",
"a. c #546E6E",
"s. c #636466",
"d. c #717579",
"f. c #91120B",
"g. c #A6050A",
"h. c #B70908",
"j. c #97391B",
"k. c #8F2D15",
"l. c #A7371B",
"z. c #AD3C14",
"x. c #852C21",
"c. c #83362B",
"v. c #883B29",
"b. c #9A3422",
"n. c #8A3934",
"m. c #A73723",
"M. c #B02C27",
"N. c #CF140A",
"B. c #E50D0A",
"V. c #E71409",
"C. c #CB3516",
"Z. c #F73608",
"A. c #EA3209",
"S. c #D9392B",
"D. c #A54A15",
"F. c #B74917",
"G. c #B75215",
"H. c #864826",
"J. c #934B2F",
"K. c #B14D2B",
"L. c #A65E29",
"P. c #C54517",
"I. c #C45A12",
"U. c #C65614",
"Y. c #D14B14",
"T. c #F55806",
"R. c #F74509",
"E. c #D87417",
"W. c #FA7C05",
"Q. c #E97313",
"!. c #CA5329",
"~. c #D7582A",
"^. c #D04822",
"/. c #E8502B",
"(. c #DE6330",
"). c #CC6F29",
"_. c #E77732",
"`. c #EA672A",
"'. c #945456",
"]. c #AB794C",
"[. c #8B7169",
"{. c #A07F60",
"}. c #A15D4B",
"|. c #CE7B4B",
" X c #CF736B",
".X c #B98C0D",
"XX c #DF8014",
"oX c #FB8203",
"OX c #EE9410",
"+X c #F9A804",
"@X c #FBB305",
"#X c #F9BC05",
"$X c #D88724",
"%X c #CD812D",
"&X c #EFA222",
"*X c #FCDC02",
"=X c #FAD403",
"-X c #F5CF10",
";X c #FBE502",
":X c #FDF018",
">X c #F4C328",
",X c #FBE829",
"<X c #B08D50",
"1X c #86867A",
"2X c #A8876B",
"3X c #B6926E",
"4X c #C6A57A",
"5X c #DB9771",
"6X c #5C6B8B",
"7X c #647A85",
"8X c #777E82",
"9X c #6A7691",
"0X c #707EA5",
"qX c #927F8B",
"wX c #778892",
"eX c #7688A3",
"rX c #7D92A7",
"tX c #84868B",
"yX c #878787",
"uX c #878A96",
"iX c #989699",
"pX c #938E8E",
"aX c #AC938B",
"sX c #B2A28B",
"dX c #8598A7",
"fX c #8797B2",
"gX c #8F94A3",
"hX c #93A8B8",
"jX c #90A3AD",
"kX c #ADACB2",
"lX c #D6BAB5",
"zX c #EBAFA4",
"xX c #99AFC3",
"cX c #A8B7C6",
"vX c #A7BBD1",
"bX c #B3BFCB",
"nX c #ABC3D2",
"mX c #ADC8D3",
"MX c #B4CCD8",
"NX c #B9D0DC",
"BX c #AFC3CD",
"VX c #BDD6E3",
"CX c #C7D1DB",
"ZX c #C7DBE5",
"AX c #D5E3E8",
/* pixels */
"R $.#.$.$.$.$.$.#.$.$.E $.$.$.$.$.-.$.#.#.$.R $.R h w X w e e i f f f p p p i h f T h p p T s t t e 5 : b.F.l.F.P.F.b.: t f T T ",
"T $.R E #.#.#.#.R #.$.-.-.$.$.E #.$.R $.#.T T ! G j h f F u t t ^ H s F g g S S d M M 0 M F K B C j s 9 q 8 l N M 0 g ~ ~ E R T ",
"$.-.$.-.$.$.#.T R T $.$.<.-.$.$.#.$.$.$.$.f f v.D.N f M C l k 6 z 7 x z x n x 8 z b z v n V , z 8 j R N z x C Z S W -.2.2.-.$.R ",
"$.$.2.$.2.3.-.2.3.#.2.$.2.<.4.-.-.4.4.9.$.T p ) ] g =.^ g H ( / j R j ~ g ! >.~ >.>.;.^ ^ ( ( ~ ;.1.1.;.>.^ ^ ~ -.3.$.2.-.=.2.2.",
"#.$.2.$.3.R $.-.-.T :.:.3.$.$.$.-.2.<.-.$.$.#.$.2.$.$.E R $.$.R -.$.$.-.E 2.2.<.2.2.4.4.2.2.2.2.2.2.4.3.3.6.2.-.$.-.$.2.:.-.:.E ",
"$.$.$.$.-.E E Y T f R $.#.#.R R R T T R -.3.2.1.2.1.$.E E E R 2.2.2.-.2.-.-.$.=.T f T h f p p f T E T T T E -.R R R T $.R =.:.T ",
"-.-.<.4.<.-.<.$.2.$.E 2.$.$.$.$.$.:.-.-.2.2.4.4.3.2.$.-.2.<.$.2.2.2.-.2.$.-.-.#.R R :.-.$.$.$.$.-.$.2.-.R $.<.=.' ] $.2.2.-.2.E ",
"4.4.-.-.4.-.-.$.1.1.:.2.$.<.<.2.2.2.2.2.2.-.2.3.2.4.2.3.2.$.2.3.-.4.3.=.2.2.2.$.:.1.2.2.2.3.-.:.1.4.4.3.-.-.-.H.K.K.) 2.3.<.<.1.",
"2.-.$.=.W G K G _ _ E -.$.-.-.-.-.-.2.-.2.-.<.2.-.-.:.;.~ ^ ` ~ R $.-.=.;._ _ _ ` ` #.#.$.E E E =.E #.R R E F m x.x.D / 2.-.$.2.",
"$.p p $.~ ~ g g ! s f g t S t s e 4 p f f W J.! T T T j s f s j T R -.2.1.s t t s f f s t t t f s s e p =.-.s t 9 9 y -.-.-.$.-.",
") g T $.4.4.1.~ ! H C n z n 8 N S t S C g J.Q.c.E -.2.2.3.$.2.4.-.2.-.2.-.$.-.R ) ( J J ^ ~ H ^ H R T -.4.4.4.2.4.$.2.4.3.;.^ ` ",
"8 t h R f f f t t t 0 7 7 5 9 0 0 s l 7 5 B H.: e R $.2.2.$.$.#.R T h h h R $.W g y d d d g g F g T T f #.R #.$.R h h T j y l c ",
"1.2.<.4.$.#.$.#.T -.:.E H G ;.;.;.1.F N y 7 B 5 5 R #.] ` ^ >.) ' ) ~ -.-.9.4.3.-.R 2.3.6.6.1.( 3.2.$.R 2.$.$.:.2.$.R 2.-.:.-.1.",
"$.R R E R T R j S F K K M m m C C C c.8 q < F., l N M c.k z x q C 0 G J j :.~ H d j G D C L c V D y y T T j ! W E H j $.f -.-.=.",
"R %.=.-.<.-.-./ ~ ( ~ ^ j ) ~ ~ ! ~ ~ W E ~ ( ~ ~ ~ =.~ g R ! j =.R j j T R R =.2.:.-.j W ( / ~ ~ ~ j / =.=.! ! ~ W ~ ~ ;.2.W f ",
"2.R 2.2.2.<.-.<.3.2.<.2.-.4.2.3.2.-.=.2.:.-.2.2.3.2.2.<.$.2.=.-.2.-.#.$.2.2.:.1.<.2.-.-.:.2.2.-.:.2.-.-.2.2.2.<.4.<.2.2.2.2.-.#.",
"T #.#.R ( R $.R R #.$.:.$.:.$.T R T R $.E j H j W W W h $.$.#.$.h R R #.W W W Y f f f R f f T T :.2.-.:.:.3.2.$.$.$.$.T R T h h ",
":.w.4.-.1.$.2.$.$.$.=.-.:.:.-.#.$.R T F L n Z C C C C t :.$.#.=.f -.$.#.c c.N G g T s T p h R h $.T T E E -.=.=.$.2.4.$.4.2.4.-.",
"T $.:.-.>.2.;.-.2.-.2.<.E 2.:.2.$.E =.~ ! ~ ! g g j W E 2.2.:.2.-.3.2.E ~ ~ W ~ / E / :.-.#.#.-.T E 2.2.2.E / E E 2.$.E 2.-.$.T ",
"T $.-.-.;.;.J.H.1.:.2.-.$.2.$.$.-.-.4.<.$.-.$.#.R R R $.-.-.:.2.-.4.2.-.-.-.$.2.2.:.:.-.:.$.-.2.-.<.<.2.2.3.1.<.2.4.:.-.3.2.$.p ",
"#.=.-.E H J.E.G._ s f f T E h T T f T p f f T f f f f h T R #.#.T R T T T h T T ! T T Y f h T T T T R R T f f $.2.3.1.-.-.2.<.R ",
"$.=./ H z j.l.j.V x d D S G ! :.-.R R T R R R T $.#.-.$.2.2.2./ G G ( #.E =.F d N M S g h R R S D g R $.T T p -.2.2.2.-.:.3.2.R ",
"2./ E E H ! ! F ~ ~ W ! ! ! / 2.-.2.2.-.2.<.R $.1.-.=.2.:.-.^ v.J ~ ~ -.2./ g ! H ~ W E =.~ R ~ W / 4.1.-.2./ -.$.-.=.$.-.3.:.2.",
"-.-.1.2.2.-.<.-.<.1.<.1.1.3.-.<.-.<.2.2.1.;.=.2.3.1.>.>.1.q.L.Q.L.1.1X1.,.>.,.;.( ;.( ;.;.>.` :.$.:.3.2.-.-.-.-.-.-.2.2.2.2.-.2.",
"f h h h h p f p f i p Y E $.T T h T f T f s t j s s y 0 1X<X.X.X.X.X].yXc M N c z z C N 9 0 0 d f h f f h h f T T h R #.$.$.T T ",
"T -.2.$.2.$.-.-.-.#.<.2.-.3.-.3.<.2.2.$.2.=.1.<.-.-.1.@.6XyX[.[.[.[.%. .o.j g g ~ ~ ~ >./ :.:.2.-.2.=.2.-.4.3.3.4.2.3.1.2.2.-.#.",
"R :.4.2.2.-.:.=.$.$.<.2.<.2.4.2.2.$.-.-.2.-.2.2.-.8XiXtXiX XzXzXlXlX'.@.tXiXwX-.2.2.2.-.-.:.2.2.3.2.2.2.$.-.-.R $.R $.E $.-.-.$.",
"$.1.1.<.:.3.3.1.1.1.2.<.-.2.7.2.<.4.<.$.=.$.$.jXdXpX X' n.C.^._.(.^.b.P 4 [.uXdXwXd.4.E -.3.-.$.<.$.$./ <.-.2.$.-.E -.-.E $.-.-.",
"#.E ~ ) ) ( ^ >.( ~ ~ E =.2.3.2.2.2.-.2.:.u.BXAXCX|.`.K.K._./././.S.m.v.< j.[.bXmXhXuX>.>.6.<.<.3.2.<.3.3.0.3.2.<.3.1.1.2.-.2.$.",
"$.R S S S M M P D d S S T #.E R $.R R $.9XhXZXNXkX^.C.!.(._.(.(.~.!.K.!.m.k.'.kXMXVXeXp.S H H g T T T Y p i w i f f s f :.:.-.$.",
"2.9.q.4.-.3.2.7.3.3.4.4.4.4.-.<.2.2.2.d.fXvXAXAXNXaX'.n.f.~.(.(.(.(.m.l.n.'.pXnXVXnXeX6Xs.6.~ :.1.2.-.Y w w w w p f e f ( -.-.-.",
"$.2.3.2.<.4.2.2.-.2.-.<.2.<.-.$.#.$.d.@ r.eXcXCXCXNXNXBXkXaX}.}.'.'.qXkXkXMXVXMXxX0X6X+.{ 1.-.E =.$.$.R i T h p p p e 7 C c.G ( ",
"3.2.$.2.2.-.:.-.#.2.-.$.T E T T T e r tX% +.6XwXfXxXvXVXZXZXNXNXBXMXmXnXvXhXfX0Xi.+.@ @ yXf w e e e w a R 4.2.7.7.7.2.Q e 2 2 6 ",
"$.$.R R -.-.-.$.R $.#.R T R T -.-.T -.-. .r.&.&.y.p.9XrXdXhXxXhXdXfXfXeXeX9Xi.o.+ o # *.E -.$.E $.-.E T #.E -./ -.2.2.E R h T E ",
"s f f p p e p i i w i e i w w i i i w w wXqXM.3 2  .o.r.t.y.i.i.y.i.i.y.t.o.} O 8 m.d.  3.4.<.-.3.3.3.-.1.4.9.4.2.3.4.:.2.2.2.2.",
"-.-.2.<.-.2.=.2.$.2.#.2.-.<.E $.$.R 2.R uXuX/.N.g.f.l.[ o X X X X X X X H.D.& g.A.~.yXd.h h f T f f j R :.-.$.$.T R $.R $.h f h ",
"$.$.2.2.1.2.$.-.$.g M v.b g E R T T R R tXiX`.R.N.h.Y.P.f.g.g.g.g.g.g.g.P.Y.f.N.T.Q.yX+ -.:.:.2.3.:.-.2.2.$.<.<.=.$.$.-.$.2.1.R ",
"~ f =.E H F f T T T q l 8 t h R R h p p tXiX&XoXZ.A.Q.Q./.S.B.B.B.B.B.V.T.T.N.A.W.&XyXs.=.:.-.-.$.$.-.E -.E $.$.T T $.R j ! =.' ",
"S T #.T y t ~ 2.2.2.:.;.-.2.7.6.4.2.4.2.u.iX>X@XT.T.OXOXzX5XR.Z.Z.Z.Z.Z.W.W.R.T.#X>XyX@.3.q.q.7.2.3.2.3.2.-.2.$.:.:.=.E y S F L ",
";.;.2.3.-.$.2.2.-.-.$.2.-.-.2.-.<.-.-.tX| iX$X+X=X+X#X#X>X,X@XW.oXoXoXoX@X@XoX@X@X$XyX  tX-.-.-.$.<.$.4.9.-.4.:.3.3.3.q.4.E / ,.",
"9 4 f $.$.$.2.3.4.4.4.9.7.4.4.-.4.4.9.r.| uX3XE.OXOX=X*X,X:X;X*X;X;X+X@X=X=X@X+XXX2X8X  # iX<.2.3.4.#.2.-.-.-.>.:.2.2.4.-.f 9 0 ",
"q.2.$.-.-.3.4.3.-.E ;.1.1.-.1.-.-.$.4.u.X 2XkX2X].$XOX#X=X*X*X*X*X*X*X=X+XOX$X).].uX*.. @.3.2.4.4.4.2.4.3.3.4.:.3.3.:.2.2.2.4.7.",
"8.;.( ^ ~ >.~ ~ f H L L ~ H L F H j =.~ & 3X3XsXaXaX3X<X%XXXE.E.XXQ.Q.E.).2XyXs.0.Y k.& 4.4.2.1.;.;.>.;.;.;.;.>.-.2.2.4.:.;.,.,.",
"Z A B M 0 y 9 t 4 0 8 q x q 8 l 0 9 cXuX& |.4X4X4XsXiXjXyXe.].2XpX].[ [.iX1X1X<X< 1 - & 9XfXR j N N N C z C N x M h h R h F L Z ",
"~ ! T -.1.;.-.2.-.-./ =.-.E E E R R p.r.& ).).).I.|.e.o.t.r.o.o.} { @ @ + 5.3X].- = = & o.t.2.E ~ ~ ~ ~ H ~ ! ;.W -.1.:.2.1.( ~ ",
">.E T g F g ) ' ) ^ K ' ~ R h f h R t.| - U.U.I.I.I.A y.vXcXjXjXdXdXcXdX@ > G.D.- = = & + # 3.-.-.-.$.-.-.-.:.2./ / E =.2.-.=.=.",
"J.m n n : k v k 6 z l l x 8 c k 8 z yX..- z.U.I.I.I.C i.BXa.O.X.U I O.rX{ > D.k.= = = & $ yX$.f y c c Z C z Z c.n n z Z b V m V ",
"< , k 8 7 9 t s E E E #.E W j R j R ~ W - f.k.G.I.I.B y.jXU U U I I O O.{ * - = = = & & iXE #./ W ! g F g g s F d y M M 0 q , < ",
"P.b.m x D M S j -.-.-.-.2.2.-.2.2.2.2.-.-.3.< f.z.F.S i.xXwXa.a.X.X.a.wX{ . = & & * :.-.-.-.=.:.-.:.-.:.>.~ K ' ~ G M L D Z z.Y.",
"m V x 8 8 q 7 e p s s f h h f h R f h Y T T T [.* v.2 { p.7XwX7X7X7X7Xp.+ . & . q s.T f h f d f s d f t 9 0 M 8 0 0 q 6 c V x.k.",
"q.7.2.4.4.3.q.4.q.9.1.9.q.4.e.4.4.4.:.2.q.7.9.2.9.pX# @ @ + + + + + + + + # [.9.:.q.4.w.9.2.q.w.q.3.q.-.2.q.-.q.q.3.4.4.q.3.7.2.",
"h $.R $.$.E #.#.R R T #.R $.R R Y f T %.T R R T #.h T R R $.$.$.$.$.$.E T R $.#.T R T R E #.R R R #.R R #.#.T R #.R $.T T $.#.R ",
"$.2.-.-.2.-.E #.h T R R R -.-.-.-.1.#.2.-.2.<.$.-.R -.2.$.h ! L j T $.2.1.-.$.2.2.<.-.-.1.1.2.3.3.3.:.2.3.1.$.2.2.2.2.3.3.-.2.-.",
"$.-.$.$.<.-./ R R =.-.E R :.2.:.:.2.$.:.-.<.2.E -.$.2.4.-.f 0 m 0 T 2.4.2.-.$.-.$.$.$.2.1.1.;.:.1.;.;.2.2.2.-.3.3.2.-.-.2.-.2.-.",
"h f e 9 Z H.V 0 e p i w e p f h p f f h f f T e f h T R #.2.f 4 f E $.T R R T T p s S C V n Z N C c D S g R h T T T f f h h T T ",
"3.$.#.s d y y g f $.$.E =.-.#.-.$.:.2.-.2.$.-.$.4.2.2.:.$.2.2.2.2.2.2.<.3.4.3.<.:.#.#.R f j ! g s j g ~ j E R $.$.$.-.=.-.$.-.<.",
"$.$.2.2.-.3.4.7.E #.R T Y T T T T $.$.$.-.#.-.-.2.-.2.2.$.2.<.$.$.$.$.-.<.4.3.3.2.:.$.$.R $.E T T R T -.$.<.#.-.E T R $.-.$.-.$.",
"h T T T T T h f p e w w w e i w h T h T h p h h T T T R f T p f i f f R T R T R h T f S t p e T h f T p f h h -.-.f p p T T R T ",
"2.2.R $.R T R T f 2.<.$.E 2.#.R 3.4.2.3.-.2.<.<.E R -.2.-.3.<.$.$.-.-.=.=.2.E 2.2.$.3.~ W =.E 2.$.E 2.R -./ E 7.4.<.2.E 2.-.2.2.",
"$.R h -.-.4.3.3./ -.2.-.$.$.T T $.-.$.E E $.-.$.$.E $.-.$.E $.#.-.$.$.-.$.-.$.$.R R $.E T T T #.T =.2.-.<.$.$.<.2.2.2.2.2.E $.E ",
"p T p t l 7 q 8 0 f -.-.Y R T s s s F s p e s d R R R #.h T R R f p p p i i i p f S d F G G M M 4 e e i R E E R T R f R T $.E T ",
"T 2.2.$.T T T T j $.3.-.T E M l z z n l M 7 z 6 d ~ ~ -.#.R $.=.T p T p i i p t x v z z z n b x 4 s T f R E R R T T f T R $.-.R ",
"E 3.2.3.4.4.3.3.3.3.2.2.2.E -.~ F ( ~ ~ H ! ( g 7 k k e #.$.2.-.-.$.2.2.T R 2.>.( ( ~ W W ~ ! ;.:.:.2.4.R h e 4 5 4 7 5 i R R f ",
"E =.$.=.=.E E $.$.$.$.E E E / =.R =.=.$.R -.-.R e 4 4 p T $.-.<.-.$.$.$.E $.-.=.#.-.$.$.$.-.-.=.-.E -.-.T 5 2 , , , , , y s e e "
};
