/* XPM */
static char *_fa7e1ffef6d4054999a3ee429ac1c6fasCsrviWHPlHrJ3l[] = {
/* columns rows colors chars-per-pixel */
"64 64 219 2 ",
"   c #010000",
".  c #0B0100",
"X  c #130100",
"o  c #1C0100",
"O  c #230200",
"+  c #2C0301",
"@  c #2E0A06",
"#  c #250E0B",
"$  c #2B0D0A",
"%  c #330301",
"&  c #3B0301",
"*  c #350A05",
"=  c #3C0A06",
"-  c #330D09",
";  c #3B0E0A",
":  c #27100B",
">  c #2C130D",
",  c #33120E",
"<  c #3B130D",
"1  c #241311",
"2  c #2C1512",
"3  c #2B1915",
"4  c #2E1E1A",
"5  c #341612",
"6  c #3B1512",
"7  c #341A15",
"8  c #3D1A15",
"9  c #341D1A",
"0  c #3B1E1A",
"q  c #34221D",
"w  c #3C221D",
"e  c #352521",
"r  c #3B2522",
"t  c #372924",
"y  c #3C2A25",
"u  c #362B28",
"i  c #3D2C29",
"p  c #3F3125",
"a  c #3E312C",
"s  c #440401",
"d  c #4C0401",
"f  c #430A05",
"g  c #4B0B05",
"h  c #410D09",
"j  c #4B0E09",
"k  c #540400",
"l  c #5B0401",
"z  c #540B05",
"x  c #5C0B04",
"c  c #530E09",
"v  c #43130D",
"b  c #4B140D",
"n  c #5D1107",
"m  c #52130C",
"M  c #5D130B",
"N  c #52190F",
"B  c #5C190D",
"V  c #441611",
"C  c #4B1511",
"Z  c #431A14",
"A  c #4B1B14",
"S  c #431E1A",
"D  c #4B1E1B",
"F  c #541612",
"G  c #5A1712",
"H  c #531A13",
"J  c #5A1D14",
"K  c #541E1A",
"L  c #5A1F1A",
"P  c #630501",
"I  c #6B0501",
"U  c #640A03",
"Y  c #6B0B04",
"T  c #640F09",
"R  c #6B0E09",
"E  c #730501",
"W  c #7C0602",
"Q  c #730B03",
"!  c #7C0B03",
"~  c #7B0E08",
"^  c #651006",
"/  c #691107",
"(  c #64140A",
")  c #6A140B",
"_  c #671B0D",
"`  c #6B1A0E",
"'  c #751005",
"]  c #7C1306",
"[  c #73140B",
"{  c #76190E",
"}  c #7C1B0C",
"|  c #6C1711",
" . c #621C15",
".. c #6A1912",
"X. c #721C14",
"o. c #7E1D13",
"O. c #452117",
"+. c #43231D",
"@. c #482419",
"#. c #4B221C",
"$. c #53231D",
"%. c #592519",
"&. c #5B211D",
"*. c #62231E",
"=. c #6C241D",
"-. c #7C2919",
";. c #7A341C",
":. c #432621",
">. c #4C2622",
",. c #432B25",
"<. c #4B2B25",
"1. c #432E2A",
"2. c #4C2E2A",
"3. c #542522",
"4. c #5D2622",
"5. c #542A24",
"6. c #5B2B25",
"7. c #532D2A",
"8. c #5C2D2A",
"9. c #443026",
"0. c #44322C",
"q. c #4B342D",
"w. c #4A392F",
"e. c #53332D",
"r. c #5A352B",
"t. c #5A322C",
"y. c #463531",
"u. c #4B3631",
"i. c #473831",
"p. c #4C3A33",
"a. c #4D3E39",
"s. c #533631",
"d. c #5C3531",
"f. c #533C35",
"g. c #5C3C35",
"h. c #533E39",
"j. c #5B3E3A",
"k. c #652623",
"l. c #632B25",
"z. c #6B2C24",
"x. c #622D2A",
"c. c #6A2C29",
"v. c #702824",
"b. c #7A2E23",
"n. c #732D28",
"m. c #792E2A",
"M. c #63352D",
"N. c #6B332B",
"B. c #723329",
"V. c #7A342A",
"C. c #7A382D",
"Z. c #643530",
"A. c #623A34",
"S. c #6C3D34",
"D. c #623E39",
"F. c #743831",
"G. c #4F4038",
"H. c #544136",
"J. c #5B4237",
"K. c #55423B",
"L. c #5A443D",
"P. c #5D493E",
"I. c #674037",
"U. c #63443B",
"Y. c #6A443C",
"T. c #61493F",
"R. c #6C493E",
"E. c #754639",
"W. c #574540",
"Q. c #5C4641",
"!. c #5E4A42",
"~. c #614641",
"^. c #614C43",
"/. c #634C43",
"(. c #604B45",
"). c #624D45",
"_. c #6A4D44",
"`. c #654F48",
"'. c #655146",
"]. c #695246",
"[. c #655249",
"{. c #69554A",
"}. c #6B544B",
"|. c #6D594D",
" X c #725144",
".X c #72564C",
"XX c #71594E",
"oX c #6F5550",
"OX c #725A51",
"+X c #840501",
"@X c #8B0401",
"#X c #840C04",
"$X c #8B0A03",
"%X c #970602",
"&X c #851004",
"*X c #8D1104",
"=X c #82150A",
"-X c #971107",
";X c #871C13",
":X c #8D1F11",
">X c #B30A03",
",X c #A21108",
"<X c #843818",
"1X c #A73F1E",
"2X c #862C24",
"3X c #873122",
"4X c #9A3322",
"5X c #963924",
"6X c #AF401A",
"7X c #B8451A",
"8X c #BE5915",
"9X c #884529",
"0X c #984527",
"qX c #844A32",
"wX c #A34928",
"eX c #AF5128",
"rX c #C04C18",
"tX c #D95417",
"yX c #C54320",
/* pixels */
"L.!.Q.!.!.!.^.!.Q.(.!.L.Q.L.Q.Q.L.L.a.p.p.p.0.y.y.0.q 9 5 2 w r i 1.1.y y 1.1.2.1.u.1.p.p.h.f.e.e.q.<.4.4X7X1X7XrX6X5XK e.f.K.K.",
"K.(.Q.!.!.!.Q.Q.L.Q.!.!.!.L.H.a.p.p.0.p.0.0.1.,.:.q q q +.8 2 8 5.:.r <.:.r <.7.2.>.3.>.t.A.N.N.B.g.f.7.8.4.l.N.M.8.A.I.U.L.L.K.",
"!.`.^.).!.!.L.K.L.L.L.L.L.K.K.K.H.H.a.a.p.0.a %.;.>.,.+.D 6 > 6 A Z +.S D D S D $.$.D D 4.z.*.k.4.g.L.N.N.c.V.C.A.L.).{.{.).^.L.",
"!.!.{.!.[.{.).{.{.L.!.P.!.Q.).L.K.K.H.h.1.y r :.:.e y y r r :.7 8 V +.1.r :.:.1.e.s.q.2.2.g.J.g.U.^.`._.R.Y.Y.Y.^.{.).{.).!.{.'.",
"Q.!.[.(.{.!.).!.!.h.).^.).h.p.p.u.f.p.p.q.u.1.1.1.r q 9 9 q r r q H C +.t :.>.:.u.p.a.0.0.f.L.L.^.P.{.].{.{.'.^.!.'.).{.).).).!.",
"!.!.!.^.).!.P.H.K.f.h.h.p.f.f.p.p.u.0.0.e.e.8.k.6.q.>.+.q 3 2 9 9 @.( b w y +.+.w y i y r y 0.u.p.H.f.L.h.L.^.L.L.L.L.).L.^.).K.",
"'.'.'.{.`.^.).!.!.K.h.!.L.K.h.u.0.<.&.o.-.:X:X;X;X,X>X-Xo.#.9 2 5 5 / ) b w e 0 0 r 0.0.,.y u.a.h.L.Q.^.L.P.`.^.E.R.(.{.'.'.'.P.",
"{.|.`.(.{.`.!.L.^.^.!.^.H.f.q.3.4.l.t.q.q.a u y r w w A [ $X-X..5 , < -X/ v q q 8 w 1.0.q.:.0.f.H.^.^.^.T.^.^.qXeXwXY.{.{.'.{.{.",
"{.).^.^.j.A.S.S.S.I.h.H.y.2.e.s.f.p.p.0.0.y y e q q 9 7 7 v R @X#Xv ; R $Xx b 7 8 Z +.y ,.:.9 u.p.f.h.f.J.J.Z.b.3X2XF._.[.(.!.'.",
"!.h.h.!.L.U.g.g.g.q.q.1.:.r.,.<.:.w w w 0 7 G C 6 5 , , , , # j @XE h f @X! c < 2 V Z 9 w 0 7 r y 0.1.1.L.T.s.7.7.2.A.^.`.^.^.^.",
"Y.g.h.!.{.{.{.L.g.d.6.l.k.4.#.+.0 7 H ) { =X&X! #X$X#XR j # # : h +XI = d E R z < 8 b #.:.+.8 :.2.0.p.H.'.'.`.[.{.Q.{.{.{.^.I.E.",
"8.s.h.L.L.h.p.q.2.2.7.3.:.w 0 0 Z H G C b B B m x U P W +XY g $ @ g +Xl f l ! U f , c H 8 O.8 7 <.i u.0.f.h.h.Q.L.h.L.L.j.t.l.c.",
"`.].{.|.!.W.Q.h.h.L.L.f.2.r ,.<.2.,.O.V b n z z T x g = @X+X$XE & * z I z k I Y z < C M #.$.+.0 q.0.p.p.K.L.W.!.[.!.Q.[.!.`.^.{.",
"!.!.!.!.L.h.h.g.M.d.M.7.r 3.K $.O.N M x P P E P & + s P @X%Xd W E s s W l d I I l f < / B _ 8 C +.w ,.0.u.f.s.g.J.A.j.!.f.^.^.^.",
"!.Q.^.`.).!.T.U.U.g.1.q.2.2.>.A M d k U Q Y f k P E l O . O o + k l & l l l P I Y s < Q _ J S A ,.y 2.p.q.g.f.g.U.J.U.U.`.].L.h.",
"[.L.`.'.).^.^.P.L.p.a.K.q.,.J } Q Y x v c z Q l & % % & o     . s & l s P l E d l d ; R ( ` 0 C 1.1.0.p.p.L.K.!.[.).'.'.{.'.).Q.",
"L.Q.Q.L.Y.L.L.f.u.h.f.0.w $.X.#XR b c %XP P % X . X X o X       o d s & l & I d P d j j Q ] 7 C :.y q.p.u.K.K.K.Q.!.Q.L.L.K.f.h.",
"(.XX{.(.`.L.!.p.K.f.0.y 1.=.#Xm F #X#XW E d + .                 . k s % d + I s k k s z Y &X8 v +.0 1.0.0.p.f.j.L.`.{.^.{.`.{.`.",
"K.!.`.^.^.^.L.L.J.0.0.0.3.] H { ! Q Q k O .                     . & s % O O k X d k d z x Y 6 m S w q.0.q.p.h.g.L.`.L.L.'.!.P.K.",
"K.!.).T.R.U.qXE.p.u.p.2.` J =X#XR W & % + .                       O + % X . & X s d k h P g 5 n A +.1.a q.a.L.L.^.{.^.T.{.'.P.f.",
"Q.^.!.L.g.9X8X<Xt.1.,.B H { ' ^ W s d k o                         . . O X   o X % s k g k d 1 M A Z y u 1.1.q.K.!.`.`.P.^.[.`.L.",
"!.!.U.A.l.<X<X-.z.>.H G ../ ( ! l l k X                             . o     . X % s k P s d , T V N t i 1.1.q.L.!.^.).K.^.{.`.L.",
").P.L.J.g.r.d.e.e.<.A L A ) ~ I U P X                                 .   . . X + s l Y % g < ' 5 H i ,.0.q.H.L.K.L.L.K.^.{.`.].",
"`.^.^.^.!.L.P.K.f.+.>.r B ) E U P X                                       .   o + s P P & ; g *X7 A y ,.,.q.H.L.K.L.Q.Q.`.^.^.'.",
"h.f.h.h.p.u.u.0.:.0 q Z B Q U U +                                           . o + s U k s - U #Xv 6 9 w r 1.0.p.p.p.p.h.Q.L.K.K.",
"K.!.[.L.).L.K.p.:.1.,.A ' x Y d .                                           X O + k I s g j W ) m q q +.1.H.L.K.^.!.h.!.`.`.^.!.",
"K.`.{.`.).L.K.1.1.0.+.H ' x P + . X                                       . o + O I k & = U #XN c q w S 0.p.p.p.h.f.p.H.L.P.~.Q.",
"L.{.`.^.!.^.L.1.f.q.#.( z Y & & X X                                       X o X & I O d g ! #Xb v 7 V +.w.w.p.a.K.p.f.P.H.L.^.Q.",
"Q.~.U.I.A.D.e.2.q.,.A n g I s + o .                                     . X . O s O + l I +XR z Z 8 C 0.w.p.a.K.H.a.L.^.Q.^.^.L.",
"(.J.Z.x.8.8.#.3.>.0 N j T d s + o X                                     . . X % o X k E E +Xz c 6 ( Z r r r y y i 0.q.q.L.^.L.L.",
"[.{.{.'.P.K.q.L.a.:.H 6 *X& s O o X                                       . % O . & E P W Y d v ) F r w q q q r e q.1.q.U.U.K.P.",
"^.[.'.^.P.a.p.h.0.:.C , ! s & o o .                                     X + o . O k l I I l f R [ 0 y +.w i 0.r y 0.,.>.c.c.M.I.",
"{.'.L.'.P.0.f.a.a +.Z v l k % o o .                                   . O X . o & k l I k k Q ! v 3 7 8 ,.p.p.,.P.L.K.p.1.D D 3.",
"P.L.K.L.K.u.h.u.i +.7 M d P & + o                                         . X O s d l k d @XI m 9 q 7 r 1.0.:.q.p.a.L.f.u.s.h.L.",
"s.f.f.p.0.1.1.y e 7 7 R s U & % o   .                                     . X s s d d & % l c 7 q 9 r 0.y.2.2.H.i.L.!.p.L.~.^.'.",
"!.^.].^.K.L.h.H.1.:.9 ~ d U & & o . .                                     X + O & d % O d g 2 3 7 7 q y ,.+.q.a 0.p.u.0.L.f.p.a.",
"Q.(.{.`.L.L.f.a.1.w 7 ~ l Y % s X . . .                                   . X & d d % k g 2 7 8 w e y y S 1.0.0.p.p.y.L.L.).!.L.",
"U.h.^.U.d.d.q.0.1.q 6 Y U x s s X X . .                                   . o % % & l g , 6 3 7 q e w 8 ,.y i y.q.y p.H.s.f.L.E.",
"A.L.Q.J.e.2.h.K.u.y w ! U z s d X X o .                       . . . . X X X O % d z j < > 2 9 q e w 5 ,.1.y y.p.1.p.K.h.e.e.Z.F.",
"_._.].{.P.L.L.H.0.1.w &XU g & k O X o X .                   . . X o O o O + & s s = - # , 2 3 4 7 5 w <.1.a f.,.u.L.!.'.P.L.U.R.",
"t.e.h.L.L.L.L.L.f.0.,.{ ^ s s k + . O o X                   . % s & & s d s & * - $ , < 2 3 7 6 6 +.S r a 0.:.1.f.K.K.K.L.s.7.8.",
"OX{.^.).P.`.`.L.p.y ,...Y f d d &   O O o                   X X + d s & % % @ @ * h v v V b v C #.H w i 0.+.0.p.j.L.a.!.^.^.{.XX",
".X XR.Y.U.U.L.h.0.,.>. .Y f d d P   o + o X . .       . . . X O o O & k l k & * z &X! x c j G ) N q y ,.S ,.s.e.s.a.L.^.L.^._. X",
"C.C.N.M.e.7.7.2.,.:.S H n j z * P X X % O o X O       . X . X o o O + % s s d d s s * g R #XQ 6 5 8 Z V D $.D +.>.u.u.f.f.A.N.C.",
"R.I.L.^.'.^.L.!.K.0.q.+.B b n * x O . + % O X O O   . . . O O O + + & d d k s + % s U E U v 3 3 7 V V +.>.+.r u.s.h.L.L.^.`.Y.Y.",
"_.P.L.g.I.g.S.S.A.e.7.>.A M b f f k O X & O O X + o   o O . + + O + % % % s k d P l f - 1 3 7 V m +.:.>.0 i u.f.p.h.H.L.(.~.U.~.",
"0Xm.n.n.4.k.*.&.3.3.#.S C ( b z @ I & X % & O o O + O . + s & % s d & & & + + * $ # # - h T T C 8 D V Z #.#.3.4.k.k.k.B.z.V.n.V.",
"b.=.k.8.e.7.2.q.K.f.p.0.:. .Z N ; z k % O s % + o + % % X + % s s % % s k P E Y x R $XW Q m 8 0 0 0 q :.+.:.,.q.e.7.x.M.8.3.k.;.",
"yX4Xm.M.S.Z.d.f.Q.L.p.p.2.6.%.+.v ; E & % s s % + O % + & + % % & d l Q P l d s P I x m b V 7 9 r r +.:.1.u.r.A.j.A.x.N.M.C.6XtX",
"b.m.c.8.8.8.5.2.u.q.1.1.i <.J 0 V > T l s d d s % % + & + + % % d d s s = f j z g ; v < 6 8 8 8 C Z w r :.:.>.>.5.6.3.5.N.C.3X3X",
"OXXX'.{.{.|.XX[.{.{.L.!.L.u.l.5.w Z < +XE k P d s * & d d & @ % s d k l x x z g z Y [ [ | ..L $.q.0.a.i.p.K.K.^.L.^.{.[.{.{.OX{.",
"h.Q.L.P.!.!.Q.L.L.K.h.p.f.0.2.%.w 8 2 n %XU P P s s * d I P s * @ @ * d P E W Q U Q / m A 0 e t i 0.i i q.p.y.u.h.K.L.L.L.Q.~.L.",
"!.[.).).'.^.P.L.f.K.h.f.f.p.u.5.<.,.0 5 ~ ! = P I d s = g E #Xf = * $ $ $ > > 5 5 3 4 q e y i 0.0.a 1.u.f.p.H.^.^.].'.{.|.`.{.`.",
"!.`.!.!.'.^.T.L.L.!.!.J.f.L.p.s.5.0.r 9 8 ~ j h l Q z s f f P +XW g ; < < 6 5 7 7 9 q ,.1.i i y y 1.0.p.L.L.P.].].^.^.^.].`.].^.",
"f.f.q.7.C.9XV.8.q.u.u.q.0.q.0.0.<.r y w 3 6 ) b < j T c g & s g x I U f , , 6 5 2 2 6 6 Z A K D #.>.8.e.s.f.f.h.f.h.h.h.K.K.L.K.",
"{.!.~.g.d.d.d.g.f.!.!.L.L.L.L.p.h.q.p.0.1.9 Z ..#.6 b b m V v h h ; b c x U c m b F D D D +.<.,.1.q.q.f.s.h.K.L.L.P.^.^.`.^.'.[.",
").!.'.{.).{.XXXXP.L.Q.K.L.L.f.f.u.h.0.u.y.i q 8 &.+.8 A C b H Z 6 6 6 5 5 7 5 8 S +.:.,.,.1.,.1.1.u.u.h.L.^.L.).P.L.!.).[.^.[.).",
"h.K.K.K.K.K.j.h.p.0.0.y.0.q.q.q.0.f.q.0.0.i i q 7 @.r w 8 8 6 6 6 7 7 w 9 w w q q r q w r y y 0.1.q.p.0.p.h.K.`.^.K.h.a.L.K.Q.K.",
"{.[.L.!.L.L.L.K.f.'.`.^.!.'.L.L.`.Q.T.H.f.K.G.p.,.9 e y ,.<.,.:.:.+.+.r 0 r :.,.1.y q.1.1.0.0.u.p.a.K.K.T.P.L.|.|.[.{.P.'.).[.{.",
"!.L.h.).).oX{.{.T.^.`.'.!.!.K.L.T.L.L.L.p.f.f.p.p.0.r e t u 1.1.0.0.0.q.0.q.0.q.q.u.u.q.f.f.f.j.h.L.`.).'.^.!.{.'.{.'.'.'.P.!.P.",
"f.K.p.e.l.5.8.x.8.f.).^.H.L.L.s.g.d.r.e.p.p 7.7.p.p.q.0.e q y 1.r y y y i i 1.0.q.t.e.d.A.Z.M.t.7.e.p.p.L.L.L.L.K.L.f.L.K.P.!.K.",
"L.[.{.^.L.L.L.L.g.^.{.`.K.!.M.l.N.z.n.6.x.5.3.3.e.g.g.K.p.1.t y y i 0.1.i i 1.,.5.4.l.l.l.n.v.x.<.u.h.p.L.L.L.L.K.K.h.L.Q.Q.).L.",
"^.{.'.{.|.{.{.{.{.{.'.'.{.P.`.Y.A.Y.Y.I.g.D.I.q.>.&.4.2.K.K.L.q.i y 0.f.p.f.L.J.A.I.U.D.A.I.D.`.`.`.`.[.L.h.q.2.2.2.7.>.u.Q.L.h.",
"L.^.!.!.!.P.!.).).!.!.!.!.L.^.^.P.^.^.T.L.!.^.J.9.<.2.u.a.L.P.P.L.h.p.y.0.u.K.L.L.Q.L.Q.^.^.^.`.^.^.^.'.L.q.>.k.v.*.=. .8.f.u.q."
};
