/* XPM */
static char *c951e003bba04cae8142bc47cee8b43ezfU8p8xe9zCBmrNy[] = {
/* columns rows colors chars-per-pixel */
"64 64 169 2 ",
"   c #521F1C",
".  c #611F1B",
"X  c #4B231D",
"o  c #5C221F",
"O  c #66231D",
"+  c #6B241D",
"@  c #70261F",
"#  c #7B2C1D",
"$  c #492722",
"%  c #402C26",
"&  c #4C2A26",
"*  c #432E2A",
"=  c #4C2D2A",
"-  c #552421",
";  c #5C2624",
":  c #552925",
">  c #5C2A26",
",  c #582629",
"<  c #542D2A",
"1  c #5C2D2A",
"2  c #46322D",
"3  c #4A342E",
"4  c #53322D",
"5  c #5B322D",
"6  c #59382E",
"7  c #473330",
"8  c #4B3631",
"9  c #4E3A33",
"0  c #4E3F3A",
"q  c #553632",
"w  c #5B3531",
"e  c #533C35",
"r  c #5B3B35",
"t  c #533E39",
"y  c #5B3E39",
"u  c #632522",
"i  c #692622",
"p  c #622A25",
"a  c #6B2B25",
"s  c #602728",
"d  c #632C29",
"f  c #6B2C2A",
"g  c #722B25",
"h  c #792D25",
"j  c #722E2A",
"k  c #792E2A",
"l  c #6C3124",
"z  c #64322D",
"x  c #6B332C",
"c  c #65392E",
"v  c #773127",
"b  c #7D3526",
"n  c #74322B",
"m  c #7B332B",
"M  c #723C2E",
"N  c #7B3B2E",
"B  c #643532",
"V  c #6A3531",
"C  c #633B34",
"Z  c #6B3B35",
"A  c #633E39",
"S  c #6E3F39",
"D  c #723631",
"F  c #743B33",
"G  c #7A3A34",
"H  c #4F4137",
"J  c #554037",
"K  c #5B4237",
"L  c #56423B",
"P  c #5B453D",
"I  c #5D493E",
"U  c #644136",
"Y  c #6D4136",
"T  c #63443C",
"R  c #6A443C",
"E  c #62493E",
"W  c #6B493F",
"Q  c #734235",
"!  c #7A4436",
"~  c #774837",
"^  c #73433B",
"/  c #7A4539",
"(  c #714B3D",
")  c #78493E",
"_  c #5B4641",
"`  c #5E4A42",
"'  c #624741",
"]  c #6B4741",
"[  c #624D44",
"{  c #624D45",
"}  c #614D46",
"|  c #654F44",
" . c #6E4843",
".. c #684C42",
"X. c #6B4D43",
"o. c #6F4A45",
"O. c #634F48",
"+. c #644F48",
"@. c #694F49",
"#. c #714D44",
"$. c #615044",
"%. c #645145",
"&. c #665244",
"*. c #645146",
"=. c #675347",
"-. c #685247",
";. c #6A5246",
":. c #645048",
">. c #675249",
",. c #67544B",
"<. c #695349",
"1. c #69554B",
"2. c #6B554A",
"3. c #6D554A",
"4. c #6A564C",
"5. c #6E574E",
"6. c #6E594E",
"7. c #725245",
"8. c #71554B",
"9. c #715A4E",
"0. c #6F5550",
"q. c #6E5A50",
"w. c #725C51",
"e. c #746055",
"r. c #796253",
"t. c #746058",
"y. c #8E301D",
"u. c #923D18",
"i. c #9D3918",
"p. c #A23B14",
"a. c #A83F1E",
"s. c #B03F18",
"d. c #B43B1D",
"f. c #832B22",
"g. c #8C2F23",
"h. c #843F24",
"j. c #893B24",
"k. c #83352B",
"l. c #84392C",
"z. c #973721",
"x. c #993322",
"c. c #9D3220",
"v. c #8F431E",
"b. c #AA4F1B",
"n. c #B94616",
"m. c #B64F1F",
"M. c #BE4A18",
"N. c #BF541E",
"B. c #8D4227",
"V. c #8C4F2D",
"C. c #974324",
"Z. c #984D26",
"A. c #9A4329",
"S. c #824437",
"D. c #824A34",
"F. c #82443A",
"G. c #994F34",
"H. c #995032",
"J. c #A54A29",
"K. c #A0502F",
"L. c #B15228",
"P. c #C5421F",
"I. c #C14C18",
"U. c #DE5214",
"Y. c #DB700F",
"T. c #DD6815",
"R. c #D0671A",
"E. c #E47211",
"W. c #E2761B",
/* pixels */
"P ` _ ` ` ` ` ` _ ` ` ` ` ` ` ` ` [ ` _ P ` _ ` P t 2 % * 2 3 8 e e e 9 9 8 8 e t t 0 9 9 L q 4 4 2 $ o c.n.a.M.I.s.z.  4 e L L ",
"L [ P ` P _ _ _ _ _ ` [ [ ` ` ` _ ` P ` _ L L T Z y t e C 6 4 4 Y A r C e r V C C d z 1 z C M x n y e < > > p x z 1 r T T P P L ",
"` [ ` [ ` ` P L P L I ` [ [ ` ` _ ` _ ` ` t e j.b.x e z n s u ; a : d a d a f ; a g i i g h O a > y P x a p n m C I [ 1.1.[ [ P ",
"` ` >.` >.1.[ >.1._ >.[ *.[ 1.[ [ 1.4.6.` L e Y ~ r ' R r A W E y P y T r T X.T ]  .o.R R R R T X.-.-.X.W R R T | 1.` ,.[ ` <.*.",
"_ ` >.` ,.P ` [ [ L O.[ 1.` ` ` [ >.*.[ ` [ _ ` >.` ` I P _ ` I [ ` ` [ P <.*.*.<.<.5.1.<.>.>.>.>.| 6.1.1.5.*.| ` *.` >.[ [ [ I ",
"` ` I ` ` I I J L e P ` _ _ P P P L L L [ 1.<.<.<.-.` I ` I P >.>.>.[ *.[ [ ` ` L e t t e 9 9 t L P L L L I [ P P P L ` P [ [ L ",
"[ [ [ 4.*.[ [ ` >.` I >.` ` ` ` [ O.O.[ >.>.1.1.1.>.` [ *.*.` >.>.>.[ >.[ [ [ P P P | [ ` ` ` ` [ ` *.[ P ` *.[ / ( ` >.*.*.*.I ",
"1.1.[ [ 5.[ [ ` 1.<.| >.` ,.*.>.>.>.>.,.>.[ >.4.>.4.*.1.*.` *.1.[ 1.1.[ >.*.>.` [ -.<.| <.4.[ [ 1.3.3.1.| [ *.D.L.J.Y *.1.*.*.1.",
">.[ ` [ K Z F Z Q ^ I [ ` [ [ [ X.[ >.[ >.[ [ *.[ [ | X.' R ^ T P ` [ [ X.^ ^ R ^ ^ ` _ ` I P I [ I _ P P I C h g.f.V | >.[ ` *.",
"_ e e [ E T r r U q q r 4 c 4 q 3 = 9 e e K A.T L L L y q q q y L P [ *.-.q 4 4 q e e q 4 4 4 e q q 2 8 ` [ q 4 < < w | | [ [ [ ",
"Y r L ` 5.3.1.T U C n j a g p x B q V n r V.W.l.I [ >.>.<.` >.1.[ >.` >.[ ` [ P T R Z Y R T A R A L L [ 6.6.6.>.4.` >.1.1.| Y ^ ",
"> 4 t P e e e 4 4 4 1 : : & < 1 5 4 p : & l v.- 2 P ` >.*.` _ _ P L t t t P ` P r 5 w w B r r C A P L e P P _ ` P t t L y 5 s f ",
"-.*.*.4.` _ ` _ L [ [ I A Z X.X.X.-.Z x 1 : l $ = L _ ) ^ R ' Q ! Y T ' ` q.6.1.| P <.3.8.8.-.W 1.*.` P >.` [ O.>.` P >.[ | ' 3.",
"` P P I P L L y c C F F z k h n n n k.; - # m.+ p x z k.u f d - n 5 Z S y [ T r w r Z x n D x b x 6 5 L L y T K P A y ` e [ [ [ ",
"P L [ | *.[ [ [ T W T R y Y T T T T T I I T R T T T T T y K T y ' T r y L P P [ *.| ' y K W W T T T K E [ ' T T T K T T X.<.P e ",
"O.L *.*.*.*.[ | <.*.[ *.[ 4.>.1.*.[ [ *.| [ *.*.1.*.>.[ ` >.[ [ *.[ P ` *.>.| -.| -.X.| *.*.*.[ [ *.[ [ <.<.*.*.1.*.*.*.<.<.[ _ ",
"P ` _ P T P ` P P _ ` | ` | [ L P L P ` I y A y T K K t ` ` _ ` t P P _ I K K J e e e P e e P L [ >.[ | | 1.*.` ` ` ` L P P L t ",
"| 9.4.[ +.` ,.` ` ` ` [ +.O.[ P ` P L C D n m n m n n 4 [ ` _ ' t [ ` _ f k.x Z r L q L 9 t P L ` L P I ` [ [ T ` ,.4.` 4.>.4.[ ",
"L ` | [ ' *.X.[ *.[ <.*.I >.[ *.` I [ T T T U r r y K I >.-.| >.[ 1.*.I T T K T E I E [ [ P P [ L I *.*.*.I | T I <.` I <.[ ` L ",
"L ` [ [ X.X.G.D.-.| *.[ ` <.` [ [ [ 4.*.` ` ` _ P L P ` [ [ | *.[ 1.*.[ [ [ ` >.*.| | [ +.` [ >.[ [ *.,.*.1.*.[ >.5.[ [ 1.>.` e ",
"_ [ [ I r Z.T.N.Q e e e P I t L L e L 9 e e L e e e e t L P _ _ L L P L L L L L U L J J e t L L L L P P L L e ` *.1.<.[ [ <.*.P ",
"` [ ' C a u.p.i.h 1 B V V V T | [ L P L P P P L ` P [ _ >.*.*.E V Z R _ I ' C z x c C r t P K B Z r P ` L L 9 [ *.*.*.[ [ 1.*.I ",
"*.E I I A C Y C T T K T T T E *.[ *.<.[ *.$.P [ -.| [ *.| [ Y l.S T T | <.E r T A T K I T T P T K E 1.<.[ | [ | I [ [ ` [ 1.| <.",
"| | *.*.*.[ *.[ *.-.*.-.-.1.[ *.[ *.1.*.-.X.` *.1.X.' X.X.( K.E.H.X.<.-.#. .#.X.W | X.X.X. .R | ` >.,.>.[ [ [ [ [ [ *.>.<.*.[ >.",
"t t t t t 9 e 9 e 8 9 J I ` L t t L e t e q 4 y q q 5 s z b R.Y.N.n 6 M x z f f f a n x 1 1 1 w e t e e L e e L L t P I ` P L L ",
"L [ 1.` >.` [ [ [ I *.*.[ 1.*.1.*.>.>.` <.[ *.*.| ' -.[ T C N M x r T r q e r r T T T X.E X.| *.` *.` *.[ 4.1.1.6.*.1.-.<.<.[ ` ",
"P +.1.*.>.[ [ [ ` ` [ *.*.*.5.<.>.` [ [ >.[ 1.>.[ [ *.*.>.1.*.[ >.[ 4.` >.[ 1.[ >.,.*.[ [ @.>.>.,.>.>.>.` [ [ P _ I ` I ` [ [ ` ",
"` -.*.*.+.1.1.-.3.3.*.-.[ *.6.,.[ 4.*.` ` I ` I [ [ [ *.3.1.1.1.*.>.,.4.4.[ 1.1.<.-.` I [ <.[ ` [ ` ` [ *.[ *.` [ I [ | P ` [ [ ",
"_ I T Y Y ] R R W T T I ` *.1.>.>.>.[ *.[ [ *.[ 6.1.*.[ *.[ -.1.>.>.*.| [ [ 1.>.| #.]  .X.8.>.[ 1.1.*.1.1.4.1.>.*.1.-.-.>.[ >.` ",
"` L V V V z z x V w B B P _ ` P ` _ P ` ` ` P P [ [ ` L L t L e e e e e L e e e w z d x z A A y L L L L e 8 7 8 e e 9 e | [ [ ` ",
">.5.9.1.| 1.<.9.5.1.6.6.w.6.[ *.>.>.>.4.>.` ` 9 3 8 t [ 1.[ | *.-.| *.1.,.3.' [ I -.X.-.1.9.T | 3.*.[ e * * * 2 9 e 3 e X.| [ [ ",
"` 1.1.*.*.1.>.>.[ ,.[ *.,.*.[ ` P ` P t q 4 4 3 t 9 9 L ` P P ` ` [ *.| *.[ _ ` ` [ ` [ >.-.[ ` [ ` ` P 9 t t 9 9 9 2 : n k.M W ",
"1.,.` 1.*.[ [ [ _ >.[ ` L I L L L 3 8 3 3 < < 3 2 3 e 9 8 2 2 * 2 2 2 2 3 8 3 3 2 8 = 2 9 e 3 3 3 3 2 7 L 4.<.9.9.9.1.H 3     ; ",
"` P L P [ [ [ _ P ` P P L P L [ [ L ` [ _ ` [ ` L e ` ` I I L P P I _ ` [ [ I L ` ` [ I [ [ ` P ` [ I L I I [ [ [ *.*.I P e L I ",
"q e e 9 9 3 9 8 8 3 8 8 8 8 7 8 8 9 8 2 8 8 3 3 3 8 y V ! S.V A R ] T ^ T ' ' T ' [ <.| 1.1.| [ 1.1.1.| 1.4.q.4.>.1.6.[ >.| *.,.",
"[ [ *.| [ *.[ >.` >._ *.[ *.I ` ` P *.I | <.` e 9 9 4 : i i - s d d > p > > > d > e e e t e e L e q L P | [ ` ` L P ` P ` t e t ",
"_ [ <.*.-.*.` [ ` r 5 h.l r I P L L P P _ _ P L 8 L *.-.-.<.*.t t [ [ ' | ' X.T P +.P [ [ | | >.1.| [ >.>.` [ [ [ ` [ [ ` >.-.P ",
"T e ` I A C e L L L : u > 4 t P P e 9 9 9 9 8 3 3 P [ [ ` [ L e _ [ [ ` ` ` ` I ` ` ` ` [ | [ [ ` _ [ ` [ I ` ` L L ` P y T [ / ",
"V L _ P 5 4 T <.*.>.| | [ >.9.3.3.*.,.>.*.[ [ [ >.*.1.*.[ *.[ 1.*.1.3.1.` ,.*.*.| <.5.1.1.w.w.9.<.1.*.1.*.[ >.[ | *.[ _ 5 B C F ",
"o.X.*.1.[ ` *.*.[ [ [ *.[ [ *.[ *.[ [ ` [ [ [ | *.[ [ [ ` [ [ [ [ [ [ [ _ *.[ ` ` [ [ [ [ [ [ [ [ *.` 4.q.[ 5.[ 1.1.1.w.1.I E #.",
"< = e _ ` ` *.1.6.4.4.w.9.6.6.[ 4.4.q.4.1.>.w.5.5.1.w.q.` 1.6.4.1.q.6.6.6.9.w.*.*.6.[ ,.,.[ [ ,.1.q._ >.[ [ [ ' | *.*.4.[ e < 1 ",
"w.>.` [ [ 1.6.1.[ I X.-.-.| -.[ [ ` 6.5.1.>.4.[ 5.1.1.6.*.1.*.9.9.9.1.[ 1.9.1.3.1.>.<.9.9.1.<.6.5.6.>.1.1.1.4.| 1.1.[ <.>.>.6.9.",
"7.X.W R T ' T I e A F M A A G C A y T T ' P P _ [ >.4.1.[ 1.>.6.1.1.| P *.1.<.*.*.*.6.5.4.4.>.-.X.X.X.o.o.o.o.X.| 1.>.6.| X.7.7.",
"m n x z 1 5 < 4 = d > > d > > s 1 < 1 1 w e 8 L P ` ` P P P P P L P L L P ` P L L P ` ` _ ` P y x z x n f n x d z t L P y C x N ",
"T T L | -.X.[ | | [ [ [ ' I I I P P ` | [ *._ [ *.>.` 1.4.*.*.| ` >.6.6.6.1.>.4.` 4.[ [ +.>.>.P T T T T A T A X.K | -.| | X.W T ",
"' I L r Z r Y Q Y Y F / T P t e t P P P L I P P ` [ P | | [ [ [ _ ` ` ` I P ` >.` >.[ [ >.1.1.| [ [ ` [ [ [ | | E E I [ >.[ ` _ ",
"C.v j g o i i u ; a > p d p f u ; f s d ; a n B e 4 x N N x q L L t Z P L P P _ ` L e L ` _ ` e w x f m m a m k.j g a m g b h b ",
"# + u > : < 4 q I I I P I K y P y P T L K y L E [ I T T T P L P _ _ ' | [ [ ` [ >.` [ ` [ ` _ [ K T r A A r w C w 5 z c 1 - O # ",
"P.x.k z V z B y [ [ [ [ >.,.[ ,.>.>.>.[ [ [ [ 1.| [ | o.' | [ ` I ^ F.F.T ' ' [ @.[ ` [ | [ [ +.[ | [ | ' T F / T Z z F V m d.U.",
"h v d > , > , 3 q q q e t t t t P e t t P L L L t L e z 5 4 4 4 < 1 1 > < 1 1 4 w 4 L e t e w e q w q 4 < 1 d > 1 p : ; f v f.y.",
"w.9.*.1.4.1.w.4.q.q.<.q.w.5.e.6.1.1.| <.w.w.w.>.q.t.6.4.q.>.5.6.t.w.6.9.r.w.<.6.+.w.1.5.q.5.w.q.w.5.w.[ *.w.[ w.w.1.6.4.w.1.w.<.",
"t _ _ I ` ` _ _ _ P L _ P _ P P L e t L L P L L _ e P P P ` ` ` ` ` ` I P I ` _ L P L P P _ P P P _ P P _ _ P P _ P P P P ` _ P ",
"` >.[ [ *.[ I I t L P P P [ [ [ | -.` *.[ >.*.[ [ P | <.` t T F r L ` <.1.| [ 1.*.| [ | -.*.| 1.1.1.| *.1.*.[ <.<.<.<.1.4.[ <.[ ",
"` | ` ` *.[ E P P [ [ ` P | >.[ +.>.` | [ *.*.` [ ` >.4.[ e 1 h > L [ 1.1.[ ` [ [ ` [ 3.3.-.X.| -.X.| | <.*.[ 1.1.*.[ [ *.[ *.[ ",
"e e 2 < m B.b 1 3 9 8 3 3 9 e t 9 t t t t e L 3 e e L P _ >.e = e I _ L P P L L 9 q B n v j m f j f V V r L t L L L e e t t P L ",
"1.` ' r 5 5 5 r e ` ` I ` [ _ [ ` O.>.[ >.` [ [ 1.[ >.O.` >.>.*.,.*.1.[ 1.1.1.<.[ _ _ P e r T r q K r T y I P ` ` ` [ [ [ ` [ *.",
"[ ` *.<.[ 1.6.9.I _ P L L L t P L ` ` ` [ _ [ [ ,.[ >.<.` *.*.` ` ` [ [ [ 4.1.1.>.O.` ` P ` I L L P L [ ` *._ [ I L P ` [ ` [ ` ",
"t L L L L L t e 9 2 2 2 2 3 2 2 t L L L t 9 t t L L L P t L 9 e 8 e e P L P L P e L e B 4 9 3 L t e P 9 e t t [ [ e 9 9 L t P L ",
">.>.P ` P L L L e *.*.` I *.I P 1.1.>.1.| *.,.*.[ P [ *.| 1.*.` ` [ [ [ [ | ` *.*.[ 1.T T ` I *.` I [ P [ [ I 6.6.*.>.I *.[ >.<.",
"` P t [ [ 0.1.1.E [ *.[ ` ` L L [ [ [ I I ` [ ` ` I ` | [ ` ` _ [ ` ` [ _ [ ` ` P _ ` P L L P _ L ` >.[ [ ` ` *.*.>.*.*.*.I ` I ",
"9 L 9 4 p : > > 1 q [ [ J P L q r q C q 9 3 q w L P P I t L P P e 9 e 9 8 8 8 9 e V w C Z Z c z = 3 3 8 P I I P L P e P L I ` L ",
"L >.<.[ L L K K e [ 1.| L I c p a a j p 5 : a ; w T T [ ` _ ` [ P e L 9 8 8 9 4 d i a a a g g d = q L e P I P P L L e L P ` [ P ",
"` 1.*.1.3.1.1.1.1.1.*.*.>.I | T C Y Y T C T W r : u p 4 _ ` ,.[ [ ` [ *.L _ | X.W W T T K T T | | | >.4.P t 2 & & & : $ 3 _ P t ",
"P [ ` ` I I I ` [ ` ` ` ` I [ [ I [ [ I I [ [ I 3 = = 9 L ` [ [ [ ` ` ` P ` [ [ _ [ ` ` ` [ [ [ [ [ [ [ t * X i @ O + . 1 q 8 2 "
};
