/* XPM */
static char *e670fe59a55f402ebd7c85a50ebabd8b5jBlDiXERhLnVgWt[] = {
/* columns rows colors chars-per-pixel */
"64 64 238 2 ",
"   c #07070A",
".  c #070A15",
"X  c #090A15",
"o  c #0D0E19",
"O  c #160E14",
"+  c #0D1316",
"@  c #121314",
"#  c #151219",
"$  c #181919",
"%  c #120506",
"&  c #261817",
"*  c #371519",
"=  c #290E11",
"-  c #362318",
";  c #2B201A",
":  c #141B24",
">  c #161922",
",  c #241C23",
"<  c #381922",
"1  c #1D242C",
"2  c #1C2424",
"3  c #152332",
"4  c #1D2D3A",
"5  c #1C313E",
"6  c #252927",
"7  c #262B35",
"8  c #2D3233",
"9  c #2D373C",
"0  c #363939",
"q  c #382E2D",
"w  c #501D1C",
"e  c #482A1B",
"r  c #5C211F",
"t  c #56371D",
"y  c #67241D",
"u  c #772A1D",
"i  c #541D23",
"p  c #451823",
"a  c #4C2C29",
"s  c #472B29",
"d  c #5C2524",
"f  c #532A25",
"g  c #5C2926",
"h  c #552D2A",
"j  c #5C2D2A",
"k  c #582625",
"l  c #46332D",
"z  c #4A342E",
"x  c #4C3423",
"c  c #52322E",
"v  c #5B332D",
"b  c #573A26",
"n  c #4B3631",
"m  c #4E3A34",
"M  c #463734",
"N  c #553532",
"B  c #5C3532",
"V  c #533B35",
"C  c #5C3C35",
"Z  c #533E39",
"A  c #5B3F3A",
"S  c #543739",
"D  c #552E33",
"F  c #632524",
"G  c #622B26",
"H  c #6B2B25",
"J  c #632C29",
"K  c #6B2C2B",
"L  c #692527",
"P  c #732C24",
"I  c #732D29",
"U  c #7A2D26",
"Y  c #63322D",
"T  c #6C332C",
"R  c #673A29",
"E  c #73322B",
"W  c #7B342B",
"Q  c #793629",
"!  c #643532",
"~  c #6A3431",
"^  c #633B34",
"/  c #6C3C35",
"(  c #633E39",
")  c #6B3E38",
"_  c #743A32",
"`  c #6E2A34",
"'  c #621E1B",
"]  c #71461D",
"[  c #48423C",
"{  c #544137",
"}  c #55423B",
"|  c #5A443D",
" . c #5D493E",
".. c #5A4535",
"X. c #5B462B",
"o. c #684422",
"O. c #754A28",
"+. c #77512D",
"@. c #644136",
"#. c #64443C",
"$. c #6A443C",
"%. c #624A3F",
"&. c #6C493E",
"*. c #6D4036",
"=. c #72423B",
"-. c #764538",
";. c #1F3443",
":. c #273849",
">. c #373D44",
",. c #273851",
"<. c #212D43",
"1. c #384347",
"2. c #294558",
"3. c #374A5A",
"4. c #2F4B66",
"5. c #314B69",
"6. c #344E65",
"7. c #36556B",
"8. c #345472",
"9. c #3A5978",
"0. c #33526E",
"q. c #3B627C",
"w. c #434B4C",
"e. c #4B4C4C",
"r. c #454846",
"t. c #5B4641",
"y. c #5D4A42",
"u. c #544A47",
"i. c #5A524C",
"p. c #464E52",
"a. c #4C5352",
"s. c #4B5857",
"d. c #535958",
"f. c #4B504C",
"g. c #614641",
"h. c #624D44",
"j. c #6B4D43",
"k. c #644F49",
"l. c #6A4943",
"z. c #645146",
"x. c #695246",
"c. c #665249",
"v. c #6A554A",
"b. c #6D594C",
"n. c #71554B",
"m. c #715A4E",
"M. c #725245",
"N. c #6E5A50",
"B. c #6A5B54",
"V. c #725B51",
"C. c #705750",
"Z. c #724D44",
"A. c #59625F",
"S. c #5B6665",
"D. c #516A7E",
"F. c #646868",
"G. c #6C7877",
"H. c #777C7B",
"J. c #63726F",
"K. c #5B5D62",
"L. c #95371A",
"P. c #AC3D1A",
"I. c #882C25",
"U. c #843A29",
"Y. c #9A3422",
"T. c #922E33",
"R. c #AA3733",
"E. c #B84D1A",
"W. c #895728",
"Q. c #915E2C",
"!. c #985D28",
"~. c #8E4B2C",
"^. c #AD4A2F",
"/. c #9C622B",
"(. c #93612C",
"). c #9A6A35",
"_. c #8F602C",
"`. c #A2622B",
"'. c #AB6D2C",
"]. c #A36829",
"[. c #B5732C",
"{. c #BC762B",
"}. c #BD782B",
"|. c #BE7932",
" X c #A96D2F",
".X c #CC4B18",
"XX c #C0772B",
"oX c #C2783A",
"OX c #DE6A17",
"+X c #AD7D49",
"@X c #9A7B42",
"#X c #C47847",
"$X c #70827E",
"%X c #BE8232",
"&X c #C38E3B",
"*X c #C79549",
"=X c #3B6586",
"-X c #395C84",
";X c #436B92",
":X c #467699",
">X c #48718C",
",X c #497EA3",
"<X c #7B8483",
"1X c #768584",
"2X c #6C8581",
"3X c #4C85AD",
"4X c #4D83A7",
"5X c #4E8CB5",
"6X c #4E8CB7",
"7X c #508DB5",
"8X c #508FBA",
"9X c #4F90BA",
"0X c #5292BB",
"qX c #5698BC",
"wX c #548CAD",
"eX c #5B9CC2",
"rX c #5BA0C1",
"tX c #6DB4CD",
"yX c #75BAD2",
"uX c #6BB0CA",
"iX c #858A89",
"pX c #899695",
"aX c #929C9B",
"sX c #909B97",
"dX c #84908E",
"fX c #8FA39E",
"gX c #9AA7A6",
"hX c #A4B0AE",
"jX c #A7B4B1",
"kX c #A9B5B3",
"lX c #ADB8B6",
"zX c #B3BDBB",
"xX c #A2ADAC",
"cX c #DA8291",
"vX c #BBC5C3",
"bX c #C4CDCB",
"nX c #C6CDCA",
"mX c #C7D0CB",
/* pixels */
"| y.t.y.y.y.y.y.t.y.y. .y.y.y.y.y.h.y.t.t.y.| y.t.Z l q s l z n V V V m m n n S V } { m m } N c c z s r Y.E.P.E..XE.Y.w c V } } ",
"} y.|  .t.t.t.t.| t.y.h.h.y.y. .t.y.| y.t.} } @./ A V V ^ v c c *.e.u.^ N C u.u.u.J Y j Y ^ _ T Q A N h k g G T Y h C #.#. .| } ",
"y.h.y.h.y.y.t.} | } y.y.z.h.y.y.t.y.y.y.y.V V U.E.T V Y E G F k H x W.7 J } (.(.+.P H L I U y H g A | T H J E W ~ | z.c.c.h.h.| ",
"y.y.c.y.c.v.h.c.v.t.c.y.c.z.b.h.h.b.b.N.y.} m *.-.C #.$.C ( &.%.8 Q.[.> C ).[.[.(.j.j.$.$.$.&.#.j.x.x.j.l.$.$.#.j.v.y.v.h.g.c.c.",
"t.y.c.y.v.| y.h.h.} k.k.v.y.y.y.h.c.z.h.y.y.t.y.c.y.y. .| y.y.| 8 j.[.# y.'.o.!.X.x.b.b.v.x.c.c.c.c.b.v.v.n.c.h. .h.y.c.k.h.k. .",
"y.y.y.y.h. . .{ } V | y.t.t.| | | } } | h.v.x.x.x.x.y. . . .| c.c.- /.> i.'.* /.1 V } Z V m m V } | } } }  .h.| ..| } y.| g.k.} ",
"h.h.z.b.z.h.z.y.c.y. .c.y.y.y.y.y.k.h.h.c.c.b.b.v.c.y.h.c.c.y.c.c.l W.> i.O.f R r.| k.h.y.y.y.y.h.y.c.h.| y.z.g.-.&.y.c.c.h.c. .",
"b.b.h.h.b.h.h.y.x.x.k.c.y.z.z.c.c.c.c.c.c.h.c.v.c.b.c.v.u.e.e.X.X.W.O.b &.e O.0 k.x.x.c.c.v.h.k.x.b.b.v.h.h.h.~.^.^.*.c.v.c.z.x.",
"c.h.y.g...) _ ) *.=. .h.y.h.h.h.l.h.c.k.c.h.z.z.h.[ 0 0 W.W.W.{.{.}.}.{.}.'.^ =.) =.g.t.y.t. . .g. .t.| |  .^ U I.I.~ %.c.h.y.c.",
"y.m m y.#.#.C C @.N V C c ! c N c l m V 1.>.@.+.+.].Q.x [.{.[.R b b o.}.}.}./.[ N V V N c c c V N N z m g.h.N c h h v h.h.h.y.h.",
"*.C } g.b.b.x.#.@.^ T I H I G T ^ N $ $ W.'.[.{.{.|.@ o @ ] }.Q.& @ o.- }.}.{.x $.&.) ) &.$.( $.( | } h.b.b.b.c.b.y.x.b.v.j.*.=.",
"g c Z | V V V c c c 3.1.1.1.9 o X x {.{.{.}.{.}.}.{.).m x Q.{.b b o.W.{.{.}.}.'.1 v B B B C C ^ C | } V t.| t.y.| Z Z } A v G K ",
"x.c.z.b.y.t.y.t.} 1 o X X X X X X x {.}.}.{.}.}.}.}.+XiXo o.}.+Xq , iXXX}.}.XX'.1 | x.v.n.n.x.&.v.c.y.| c.y.y.k.c.y.| c.h.k.h.x.",
"y.| |  .| } | A R : X X X X X X . - '.}.}.}.}.}.}.}.|.*X).'.&X&X].).*X}.}.}.}.[.q C / ~ Q _ K W ~ v v } } A @... .( A y.V g.h.g.",
"| t.g.h.z.h.h.%.#.# X X X X X X X o (.}.}.}.}.}.&X&X&X%X%X{.}.}.}.}.}.}.}.}.}.}.W.k.h.A ..%.%.#.#.#.A %.g.g.@.@.#...#.#.j.x.| V ",
"c.| c.c.z.z.h.z.h.X X X X X X X X X @X*X*X*X&X}.}.}.}.}.}.}.}.}.}.}.}.}.}.}.}.}.Q.x.h.h.c.c.c.h.k.c.h.h.c.x.c.z.b.z.c.c.x.x.h.t.",
"} t.t.| #.| y.| } X X X X X X . X X ).}.}.}.}.}.}.}.}.}.}.}.}.}.}.}.}.}.}.}.}.}.Q.V N | V V } } k.c.h.k.k.v.c.y.y.y.y.} | } Z Z ",
"k.C.b.h.x.y.v.y.t.. X X X X X X X X Q.{.}.}.}.}.}.}.}.}.}.}.}.}.}.}.}.}.}.}.}.}._.} N | V Z | } y.} }  . .h.g.g.y.c.b.y.b.c.b.h.",
"} y.k.h.h.c.x.h.y.X X . X X X X X X Q.}.}.}.}.}.}.}.}.}.}.}.}.}.}.}.}.}.}.}.}.}.(. .%.h.h.| t.h.}  .c.c.c. .%. . .x.y. .c.h.y.} ",
"} y.h.h.j.x.~.~.x.> X X . X X X X X (.}.}.}.}.}.}.}.}.}.}.}.}.}.}.}.}.}.}.}.}.{.O.k.k.h.k.h.h.c.h.z.z.c.c.v.x.z.c.b.k.h.v.c.y.m ",
"t.g.h. .^ ~.OXE.*.: X X X X X X X o Q.}.}.}.}.}.}.}.}.}.}.}.}.}.}.}.}.oXcXoX}.{.R ..{ { m Z } } } } | | } V V y.c.v.x.h.h.c.z.| ",
"y.g.%.( H L.P.L.U j o X X X . X X & ].}.}.}.}.}.}.}.}.}.}.}.}.}.}.}.}.|.cX#X}.[.b Y ! C Z | | ! ~ C | y.} } m h.c.c.c.h.k.v.c.| ",
"c.%. . .^ @.@.^ #.#.7 X X X X X X x [.}.}.}.}.}.}.}.}.}.}.}.}.}.}.].W.}.oXXX{.'.1 #. .| g.#.| #...%.b.x.h.c.%.h.y.h.g.y.h.v.k.x.",
"h.h.x.c.z.h.z.h.x.x.c.9 > X X X O W.}.}.}.}.}.}.}.}.}.}.}.}.}.}.W.o.t {.}.}.}.].1 h.&.j.j.l.$.k.y.k.v.c.h.h.h.h.h.h.c.x.x.c.h.c.",
"V Z Z Z Z m V m V z m V y.7 & R /.[.{.}.}.}.}.}.}.}.}.}.}.}.[.; b ].[.XX}.}.}.W.1 H E T h h k B V Z V V Z Z V } } Z | t.y.y.} } ",
"} h.c.y.c.y.h.h.h. .z.c.h.v.c.z R W.'.[.}.{.}.}.}.}.}.] e - e !.[.}.{.}.}.}.}.W.1 #.$.&.%.k.k.c.h.c.g.c.h.b.v.v.b.x.v.x.x.x.h.t.",
"| k.b.c.x.h.k.g.y.y.z.z.z.c.b.c.c.y.M } y. ./.XX}.}.}.{.{.{.{.+.Q.}.{.}.}.}./. .2 c.c.h.h.k.c.c.v.c.c.c.y.h.h.| y.| y. .y.h.h.y.",
"y.x.x.z.k.v.v.x.x.x.c.z.h.c.m.z.z.b.z.y.y. ...[.{.}.}.}.}.}.{. X[.{.{.[.].~.& d.6 x.y. .h.z.h.y.c.y.y.%.z.h.c.y.h. .h.h. .y.h.h.",
"t. .#.*.*.&.$.l.%.#.#. .y.c.v.c.c.c.h.c.h.h.w.s b !.`.`.`.`.`.`.`.!.t e l e.a.d.dXs.l.l.l.n.z.c.v.c.z.v.v.b.v.c.z.v.x.x.x.h.c.y.",
"y.| ! ! ! Y Y ~ ~ B ! ! | y. .| y.t.| g.y.S.M @ d.@ # # # # # # # 8 aX+ S.$ dXjXjXH.S.T Y ( ( C } } } { m n l n V V N V h.k.h.y.",
"c.N.V.b.h.v.x.m.n.v.b.b.m.b.h.c.c.c.c.b.c.a.pXfX1.d.$ A.@ gXdX0 6 G.S.9 s.gXjXjXjXkX# x.n.n.#.k.x.c.h.{ s l s l m V z V &.h.h.h.",
"y.c.v.c.z.b.c.c.k.c.k.z.c.z.h.t.| y.} Z N $ dXjXjXdXiX1XG.F.S.a.H.iXiXxXhXjXaXG.jXjXdX9 c.x.h. .g.y.y.| n } Z m m m z k E U./ &.",
"v.c.y.c.c.h.k.h.t.c.h.y.}  .} } } z n z 2 aX$XjXjXjXjXjXjXjXjXjXjXjXjXkXjXjX8 jXzXbXlXG.m V z z z z l M | b.x.m.m.m.c.{ z w i k ",
"y.t.| | h.h.h.y.| y.t.| } | } h.h.} y.h.> aX<XvXvXvXjXjXjXjXjXkXjXjXkXkXjXjX8 kXzXbXlXaX1.h.y.| y.h. .} t. .h.%.h.c.c. .| Z }  .",
"N V V m m z m n n l n z n l l n n n l l H.gXiXbXmXmXbXlXjXjXjXjXjXkXkXjXjXjX8 jXjXkXjXhX0 v.h.h.v.v.v.h.x.b.N.b.c.v.b.k.c.c.c.c.",
"h.h.c.z.h.c.g.c.y.c.t.c.h.z. .y.y.| c.| iXgXiXbXbXbXbXlXjXlXkXlXlXjXjXjXjXkXJ.G.F.pXzXhX0 S V } V V A | k.h.y.y.} | y.| y.Z V Z ",
"y.y.x.c.x.c.y.h.y.C Y U.I C  .| | } | | B.gX<XlXlXlXlXkXbXbXbXzXkXkXjXjXjXgXs.dX<X<XlXxX9 k.c.c.v.k.h.c.c.y.z.z.g.y.y.h.y.c.x.| ",
"#.V g. .( ^ V } } } k G g c Z | | Z m m > sXH.jXjXjXjXkXjXzXvXvXkXjXjXjXjXG.a.jXjXjXjXgX8 h.h.h.y.y.h. .h. .h.y.} } y.| A @.g.-.",
"! } t.| v v #.x.c.c.k.j.h.c.m.n.b.c.v.c.a.1.s.dXjXjXjXjXjXjXjXkXjXjXjXjXgX2 hXkXjXjXjX<Xf.V.V.m.x.v.c.v.c.h.c.y.k.k.g. .v ! ^ _ ",
"j.j.c.v.h.y.c.c.h.h.y.c.h.h.c.h.z.h.h.y.h.1 1.  G.$XsXaXsXaXaXsXaXaXaXsX2X$ aXkXjXjXhXd.h.h.h.h.y.z.y.b.N.h.b.k.v.v.v.V.b. .%.Z.",
"h a V y.y.y.c.v.b.b.b.N.m.b.b.h.b.b.N.b.v.c.2.X 5 X # r.  6 e.@ e.@ 6 a.X   w.1XhXgXw.c.v.k.h.c.v.b.t.c.h.h.k.h.k.c.c.b.h.V h j ",
"V.c.y.h.h.v.b.v.h. .j.x.x.h.x.h.h.y.b.b.v.c.1.3.5X3X:X3.:.:.@ ,.7.6.6.9.3X:X:.> w.p.X m.m.v.x.b.b.b.c.b.v.v.b.k.v.v.k.x.c.c.b.m.",
"M.j.&.$.#.h.#.| V ( _ _ #.^ _ ^ ( A #.g.g.| | 9.5XeXeX0.3 o   3 3 ;.:.7X8X=X3X8.;X7.X b.b.v.c.h.j.j.l.j.j.j.j.h.h.c.c.b.k.j.M.M.",
"W Q T Y h v h v a j g k J k g G j h h h B V n + 4XtXtX0.: +   : : 4 =X9X0X:X4 8.3X8.X y.t.y.| A T T T E H E T J Y Z Z | Z ^ _ Q ",
"#.@.} h.x.x.h.c.h.h.%.g.h. . . .| | y.h.h.c.t.o :XtXtXqX5X6X3 X 3 5X6X0XqX0X6X4.5Xq.X h.k.c.c. .#.#.g.@.^ $.@.j.| h.x.k.k.j.&.#.",
"h. .| C ^ C *.-.*.*._ -.#.| Z V Z | | | } t.| : D.qXtXqX9X8X,X,.5X8X8X0XtXqX0X8X7Xq.X h.c.v.v.h.h.h.y.h.h.h.k.c.%.%. .g.x.h.%.g.",
"~.U I I r F L F d H g G L g K F d L G L d H T ! 2.0X8XqX5X8X5X9.,X8X8X9XuXqX0X0X5X9.  } y.t.y.V v K K W E H W U.I I H Q P W U W ",
"u y F g f h c N  . . .t. ...A | A | #.} ..A | %.2.8X3Xq.8X8X7X=X,X8X8X6X9X0XyXrX5X8.  y.h. .y. ...@.C ^ C C N ^ B v Y Y h k y u ",
".XY.U J ~ Y ! A h.h.h.h.c.c.h.c.c.c.c.h.h.z.h.v.2.7X,Xq.5 9X0X;X:X8X5X5 7X0XqX0X5X8.  h.h.h.h.k.h.k.h.k.h.#._ -.#.) Y _ ~ Q P..X",
"U W L g g k k z m N N V Z Z V Z | V Z } } } } } [ >X8X8.7X0X8X;X:X9X8X3X8.5XqX0X5X8.  V Z V B V N B V v h h Y g h j k k K W I.L.",
"V.m.c.b.b.v.V.b.V.N.x.N.V.b.V.b.b.b.k.x.V.m.N.c.9 5.3X7X8X7X8X:X>X3X8X8X3X5XqX0X5X6.  b.N.v.V.N.V.v.V.h.c.V.h.V.V.v.b.b.V.v.m.x.",
"Z y.| y.y.y.t.t.| | } t.| y.| | } V } } } | } } 4 a.5 :.:.:.:.:.X 7 8.;X3X3X3X3X=X<.  1.t.t.| | | t.| | t.t.} | t.| y.| | y.t.| ",
"y.c.h.h.c.h. .t.Z } | | | h.h.h.h.x.y.c.h.c.c.g.2.i.yXyXyXqX7X3X3 wX=X7.7.2.2.2.2.2.9.6 x.x.k.v.v.v.k.c.v.x.y.x.x.x.c.v.v.h.c.y.",
"y.h.y.y.z.h.%.| | g.h. .| k.c.k.k.c.y.z.h.z.c. .r.>X0X0X0X0X8X3X-X3 5X0XtXtXuX8X8X8.9.6 x.x.j.k.x.j.j.c.x.c.h.v.v.c.h.h.c.h.c.h.",
"Z V z h W ~.Q j z m n l z m V Z m V V Z Z m } z V 2.4.4.6.6.6.,.,.: 5X5X5X5X5X5X3X4.0.7 W I W K E K ~ ! C | Z } } } V V Z Z } } ",
"v.y.t.N B v v C V y.y. .g.h.t.h.y.h.c.h.k.y.s.w.w.0 q * * * < * i , 5.5.5.5.5.5.4.7 # | V C @.C N A C #.A  .| y.y.y.h.g.h.y.h.z.",
"y.y.c.c.h.v.b.m. .t.| } { } } | } y.y.y.h.t.S.vXbXvXgXu.r = U ^.T.= p p F = w % < * % y.| y. .} } | } h.y.z.t.h. .} | y.h.y.h.y.",
"Z } } } } } Z V m z l l l z n l Z } } } Z s.H.zXbXvXkXfXO T.R.R.i F.F.F.d.` i = U.T.% ! c m z } Z V } m V Z Z h.h.V m m } } | } ",
"c.c.| y.| } | } V c.z.y. .c.t.| v.b.c.v.h.w.H.jXjXjXjXaX2Xp T.i iXzXbXlXjX0 ` R.^.T.% #.| y. .c.y. .c.| h.%. .m.b.z.c. .c.h.c.x.",
"y.| Z h.h.b.v.v.%.h.c.h.y.y.} } y.h.y.%. . .>.A.S.S.F.d.a.< s = iXvXbXzXlXgXe.L T.D @  .} } | t.} g.c.h.z.y.y.z.c.c.c.c.c. .y. .",
"m } m c G k k g j V h.h.{ | } N N N ^ c m z N [ r.r.d.a.1.1.w., iXjXlXjXhXgX$X, s 0 V ^ ) / Y Y a z z n |  . .| } | V | } y. .} ",
"} c.c.y.} } } } A y.v.h.}  .Y G H H I G Y f H k C $.$.h.y.| y.h.8 r.e.a.a.w.d.<Xp.L H H L I P J a N } V |  .| | } } V } | y.h.| ",
" .v.c.v.b.b.v.v.v.v.c.c.c. .h.#.^ $.*.#.^ @.&.C f d F c t.y.c.h.h.0 G.gXgXsX1.9 ..&.#.A A #.#.j.k.k.x.b.| Z z a f a f e n t.| Z ",
" .g.y.g.g. . .y.y.y.y. . . .%.g. .g.g.y.| y.h.| n a a m } y.h.z.h.y.8 $ $ $ h.g.t.h.y.y.y.h.h.k.h. .h.h.} s e y u y y ' v N n z "
};
