/* XPM */
static char *_b802229c46c458ea3030c204f314be1M4sdhEjJNWMkMGNR[] = {
/* columns rows colors chars-per-pixel */
"64 64 211 2 ",
"   c #34150E",
".  c #3B140E",
"X  c #34180F",
"o  c #2F1512",
"O  c #341612",
"+  c #391612",
"@  c #351913",
"#  c #3A1B15",
"$  c #3C1E19",
"%  c #3E221C",
"&  c #3F2720",
"*  c #5A150F",
"=  c #421E16",
"-  c #441E19",
";  c #541C14",
":  c #581C12",
">  c #62140F",
",  c #631F16",
"<  c #681F1A",
"1  c #432217",
"2  c #4C2115",
"3  c #42251E",
"4  c #49251D",
"5  c #46281F",
"6  c #4B291F",
"7  c #5B2A15",
"8  c #5B2916",
"9  c #51231D",
"0  c #632416",
"q  c #602F15",
"w  c #64211A",
"e  c #6A261B",
"r  c #642D1C",
"t  c #7A2714",
"y  c #7B2A1D",
"u  c #64341C",
"i  c #6B391A",
"p  c #70361F",
"a  c #733C1C",
"s  c #422521",
"d  c #4A2721",
"f  c #442A23",
"g  c #4C2B23",
"h  c #452D28",
"j  c #4A2F29",
"k  c #502720",
"l  c #522D24",
"z  c #5A2E25",
"x  c #552F28",
"c  c #592F2A",
"v  c #4C3025",
"b  c #46302B",
"n  c #4B332C",
"m  c #553127",
"M  c #593126",
"N  c #56322A",
"B  c #593229",
"V  c #57382F",
"C  c #5E382E",
"Z  c #4C3630",
"A  c #4F3933",
"S  c #573731",
"D  c #543B34",
"F  c #593B33",
"G  c #543F39",
"H  c #5B3F38",
"J  c #632D24",
"K  c #7E2921",
"L  c #623323",
"P  c #63362D",
"I  c #65392E",
"U  c #693A2F",
"Y  c #7A3727",
"T  c #723B21",
"R  c #783B21",
"E  c #663732",
"W  c #653A32",
"Q  c #6D3D32",
"!  c #653F38",
"~  c #733D34",
"^  c #7C3934",
"/  c #564336",
"(  c #594235",
")  c #57433D",
"_  c #59433C",
"`  c #7D4729",
"'  c #624237",
"]  c #6D4135",
"[  c #62443C",
"{  c #6C443B",
"}  c #744136",
"|  c #7B4436",
" . c #7B4D34",
".. c #74433A",
"X. c #7D453A",
"o. c #7D483B",
"O. c #7E5032",
"+. c #574340",
"@. c #724740",
"#. c #8C1E16",
"$. c #991C15",
"%. c #A91913",
"&. c #BB1A14",
"*. c #B91D18",
"=. c #8A2A1D",
"-. c #96251B",
";. c #8E3818",
":. c #9C3615",
">. c #AA261D",
",. c #B5221A",
"<. c #BE2A1E",
"1. c #A1391A",
"2. c #892921",
"3. c #972F2B",
"4. c #833F24",
"5. c #95382A",
"6. c #993B2D",
"7. c #8D3B30",
"8. c #933C31",
"9. c #A62820",
"0. c #B72C26",
"q. c #BC2C23",
"w. c #B93C23",
"e. c #DE170E",
"r. c #DE1A0E",
"t. c #C81D16",
"y. c #DF1713",
"u. c #D61E15",
"i. c #DD1B12",
"p. c #DF1C18",
"a. c #E1170F",
"s. c #E1190E",
"d. c #E11711",
"f. c #E11911",
"g. c #DF220F",
"h. c #C4241B",
"j. c #C7261D",
"k. c #CD231B",
"l. c #DB2214",
"z. c #DC2E13",
"x. c #D9281A",
"c. c #C03B19",
"v. c #CC3D1A",
"b. c #DD3818",
"n. c #E22A0F",
"m. c #E12212",
"M. c #E22C12",
"N. c #E43414",
"B. c #E53B15",
"V. c #E83A16",
"C. c #E63718",
"Z. c #E73A19",
"A. c #8D4D1E",
"S. c #964D1D",
"D. c #AB471E",
"F. c #B74D1E",
"G. c #AA5C1C",
"H. c #8C4E25",
"J. c #93492C",
"K. c #814337",
"L. c #804E36",
"P. c #80463B",
"I. c #944431",
"U. c #994831",
"Y. c #815136",
"T. c #965331",
"R. c #A6492D",
"E. c #B64A2B",
"W. c #B6632D",
"Q. c #B56332",
"!. c #DF421B",
"~. c #DF4E1D",
"^. c #DF501D",
"/. c #E64114",
"(. c #EA4415",
"). c #E64D16",
"_. c #E94C16",
"`. c #E4451C",
"'. c #EA4519",
"]. c #E54D1B",
"[. c #E94C19",
"{. c #EA5616",
"}. c #E2501C",
"|. c #EB5218",
" X c #EB5E18",
".X c #ED6319",
"XX c #E9641A",
"oX c #F06517",
"OX c #F1651D",
"+X c #F36D1D",
"@X c #F4711B",
"#X c #F67B1D",
"$X c #F97D1E",
"%X c #CE4D26",
"&X c #D44921",
"*X c #DC4F23",
"=X c #E24D21",
"-X c #E35123",
";X c #CE6026",
":X c #C26F2C",
">X c #C3702A",
",X c #F06521",
"<X c #E17A23",
"1X c #F57420",
"2X c #FA7D20",
"3X c #FC861D",
"4X c #FB881C",
"5X c #F48624",
"6X c #FB8521",
"7X c #F38825",
"8X c #F98822",
/* pixels */
") Z O O g N N M M Q X.X.X.X.} N N N N N O O $.a.i.J N 2.y.i.y N N 3 3 g N N O O O O O % s s s s # @ @ X.| R.].[.m.d.t.O @ n ) ) ",
") A $ $ l B B B N W } ~ | | ] N N C I P @ # $.a.i.S.A.1.M.M.-.=.K $ % g N N O O O O O 3 s s s s # @ . 6.6.w.B.B.B.B.v.O @ h Z A ",
") G N N B B B B B B B M | X.} B M } X.} 3 s $.a.a.2X4X1X[.[.m.i.t.  O 4 B N O O O O O 3 s s s s # @ . u.i.d.d.r.@X3X<XO O $ 3 & ",
") G N B B N M N B M M M X.X.~ B N } | | 3 1 $.a.s.$X4X@X].].m.i.t.  O 4 B N O @ O O O % s s s s $ @ . u.d.d.d.r.1X3X<XO O $ s s ",
"h d # $ 3 5 3 3 3 3 d 4 P P l $ $ >.j.j.&.&.u.d.a.N.N.v.U.U.6.6.8.U W l $ $ W W W W W B l N ] Q Q Q Q ^ ^ ^ ^ ^ a a i % % $ # @ ",
"s % @ @ % 3 3 3 s s s s M N g O   &.s.s.s.s.s.d.d.a.s.q.X.| | X.X.X.X.l     X.X.X.X.X.P B C X.X.X.X.| _ ) ) ) _ f 3 3 3 s # O O ",
"d 1 @ @ % 3 % 3 3 3 3 3 M M g O   &.s.a.s.s.r.s.a.d.s.<.} ..X.X.X.| | l # + X.X.X.X.X.C m B ..| X.X.X.( / ) ) ) f 3 3 s s $ @ # ",
"N j 3 d 3 3 d N N N N N 3 3 % O O &.s.m.[._.N.a.a.s.s.%.    Q X...c c Q X.P.X.X.X.X.X.k 3 3 N N Q X.X.3 3 n ) ) f 3 f N B B B B ",
"N x 3 d 3 3 3 B B B B N s 3 % O O &.s.r.[._.M.r.i.i.s.%.O O Q X...x B Q X.X.X.X.X.X.X.g 3 3 N N Q X.X.3 3 n ) ) f 3 f N B B B B ",
"3 3 s d 3 3 3 B B g 3 d $ $ # O O &.r.s.N.N.N.N.N.r.r.,.M B ..X...x c Q | X.C C P I U l g g B B P U W 3 3 f n n f 3 3 3 3 g g g ",
"@ # 3 s s 3 d B B 3 O @ @ O @ O   &.s.a.s.s.N.).[.s.s.h.K.X.X.X.| x N Q X.X.d s g B B M M M B B M M N 3 3 3 3 3 3 3 % O O % 3 s ",
"O @ 3 3 s 3 d N N 3 @ O O O O O   *.i.f.p.f.C.].].l.i.q.X.X.X.X.| M N Q X.X.d s g B N B B M B M B N N 3 s 3 3 3 3 3 1 O O % 3 3 ",
"| | | X.l 3 f ) / n 3 3 m m M M m 9 9 9 ' ! I L L J J C _ ) C M C X.X.X.X.X.3 3 j _ _ C B C _ _ f @ @ @ O g | | | | ~ O O 3 N M ",
"| X.X.X.l s f ) ) n s 3 N N M M N 4 3 f ) ) F N N M B V ) ) N B M X.X.X.X.X.3 3 j ) ) N B N ) ) f O O O O k X.X.X.X.~   O 5 B B ",
"X.X.X.X.N n n ) ) n s s l l l l l d s s A A D S S l l V ) ) D N I X.X.X.X.X.3 3 j G G V B N ) ) f O O # @ 4 I I Q ~ I + # 3 l l ",
"| X.X.X.[ ) ) ) ) n s s s s s s 3 3 s s s 3 n ) ) f 3 b ) ) ) ) _ X.X.X.X.X.3 3 g B N B B N ) ) f O O 3 3 % O O l B M s 3 3 3 3 ",
"X.X.X.X.[ ) ) ) ) n 3 3 d s d s 3 3 3 s s s Z ) _ s 3 h ) ) / ) _ X.X.| X.X.3 3 g B B B B N _ ) f O O s s $ O O l B x 3 s 3 3 3 ",
"[ [ [ [ F N V ) ) ' Q Q Q Q E l l U ~ ~ ~ ~ } ....Q ~ W N N ] ....[ _ F P P + @ $ f 5 3 5 5 h h j g g # # @ O O 3 g j D D j 3 3 ",
") ) ) ) N M N ) ) { X.X.X.X.~ B M } X.X.X.X.X.X.X.X.X.~ N B } X.| _ ) D B N O O # 3 3 3 3 3 3 3 g N N O O O O O 3 s f ) ) n 3 3 ",
"/ ) ) ) S N V ) ) { X.X.X.X.~ C M } | | ..........X.X.Q M M ] } ] _ ) F B N O O $ 3 3 3 3 3 3 3 g M N # # @ O O s f h / / n d 3 ",
"B N ) ) ) ) ) ) ) { X.X.X.X.X.X.X.P M m 3 3 #     | X.W 3 3 3 3 f ) ) D B B @ @ 1 N N # O @ 3 3 g M B B B g O O D ) G 3 3 g N M ",
"B V ) ) ) ) ) ) _ { X.X.X.X.X.X.X.P M m 3 3 # O   | X.W 3 3 3 3 f ) ) D B B @ @ 1 N N $ O @ s 3 g M B B B g O O D ) G 3 3 l B B ",
"g j f f b n n n n ! X.X.X.X.X.X.X.z g g 3 % # O X l l g 3 3 3 3 f n n C Q Q + O $ g g # O @ $ # 3 g g 1 3 $ O O f f f s s 3 1 1 ",
"s % O O % 3 3 3 s I X.X.X.X.X.X.X.l 3 3 3 3 # O O O O # 3 3 3 3 3 s 3 I X.X.# O $ 3 3 @ O O O @ % 3 3 O O O O O O O @ 3 3 # @ @ ",
"3 % O o % 3 3 s s C X.| | | X.X.X.l 3 3 3 3 #         # 1 1 1 1 1 3 3 I K.X.+ O # 3 3 # O O O o $ 3 3   O O O O O O O 1 1 + O O ",
"| { ) ) N N l O @ j _ _ _ _ H N M } | | X.X.E.].].l.u.u.u.u.!.~.%Xm N 9.u.k.2 % f N N M M T 7X7XS.N M *X~.b.u.u.`.~.~.~.~.~.~.~.",
"X..._ ) V B m O O j ) ) ) ) H N N } X.X.X.X.E._.[.r.r.s.s.s./.[.&Xl B >.a.i.4 % f N B B B R 3X3XS.N M ].[.Z.r.d./.).).).).).).).",
"X.] D D N B B 1 1 h Z n n n V B B } X.X.X.X.w.V.V.r.r.r.M.M.{..XXXA.A.c.M.z.4 % f N B B B R 3X3XF.2.=.XX.X|.B./.V.B.B.B.B.B.B.B.",
"X.Q 3 s l B B B B 3 O O O O % N B } X.X.X.X.0.r.r.s.r.M.[.[.2X6X3X3X3XOX[.=X4 % f N B B B R 3X3X(.d.i.3X3X3X3X3Xz.i.r.r.r.i.i.i.",
"X.Q 3 s x B B B B 3 O O O O % N B } X.X.X.P.0.e.a.r.s.n.[.].#X4X3X6X6XOX].-X4 3 g M N N B R 6X6X(.d.f.3X3X3X3X3XN.i.i.i.i.i.i.i.",
"[ _ D D j d 4 4 4 3 % 1 Q ~ ~ ..} N g g 1 - 1.B./.+X@X;X| | L.Y.O.q q 0 , 0 s 3 j G _ j 3 g O.O.Y y y 6X3X3X3X4XJ.^ ^ ^ ^ e > > ",
") ) ) ) j 3 3 3 3 3 3 3 X.X.X.X.X.g s 3 O O :._._.3X3X>X_ ) ) ) G @ @ @ @ O 3 3 j ) / h 3 f ) ) D M M 5X3X4X3X3X .) ) ) ) f O O ",
"G / ) ) j f f f f g 6 4 } | | X.X.l g g @ @ :.[._.3X3X:X_ ) ) ) / $ $ # # # 3 3 j ) ) h f h ) ) G V M 5X$X3X4X3X .) ) / / h # $ ",
"& h ) ) ) ) ) ) ) { X.X.M M I X.X.X.X.} 3 3 1.[._.3X3X:X_ ) ) ) ) X.X.W B N 3 3 j ) ) ) ) ) ) ) ) ) _ }.[..X4X3X .+.G 3 3 I X.X.",
"3 h ) ) ) ) ) ) ) { P.X.B B I X.X.X.X.} 3 3 1.[._.3X3X:X_ ) ) ) _ | X.E B N 3 3 j ) ) ) ) ) ) ) ) ) _ ^.[..X3X3X .) G 3 3 I X.X.",
"Z A ) ) ) ) ) ) ) { X.X.1 1 6 M C } X...s 3 D.+X+X3X3X:X_ ) ) ) _ | X.} Q Q 3 3 j ) ) b f h n n n n v }.].{.oX.X| ) / n Z ] X.X.",
") ) ) ) ) ) ) ) _ { X.X.@ @ # 3 s Q X...s 3 G.3X3X3X3X:X_ ) ) ) _ X.X.X.X.| 3 3 j ) _ % @ @ s 3 3 3 1 ].[.[.[.[.| ) ) ) ) { X.X.",
"_ ( ( ( _ _ _ / ( { X.X.+ O # 3 3 ~ X...3 3 G.8X4X6X8X:X_ ) ) ) [ | | | | | 4 1 v ( ( $ O + 1 1 1 1 2 ]._.[.[.[.| _ _ ) _ { X.X.",
"].XX7X5Xb.u.z.7X7XQ.X.| | | | | | P B B N N M L u L L M M M M M T 5X5X5X5X5X}.].XX7X5Xb.u.x.=X=X].].}.3X4X+X_.[.I.X.| X.o.X.| X.",
"[..X3X3XN.s.n.3X3XW.X.X.X.X.X.X.X.P B B N M N B B M M B B B B B T 4X3X3X3X3X|.[..X3X3XN.a.m.[._._.[._.3X4X@X_.).I.X.X.X.o.| | X.",
".X.X.XOX[./._.4X4XW.X.X.X.X.| Q Q C B M g g M B B l g m B B B B T 4X3X3X3X6XB.Z.{.3X3X{././.V.V.'.[.).3X4X@X[.[.I.X.| ~ ~ } | X.",
"3XOXr.r.+X3X3X4X4XW.X.X.X.X.~ B B N M M 3 3 g M N 3 3 f B B B B T 4X3X3X3X3Xr.s./.4X4X3X3X#Xr.r.N.].).3X4X@X[.[.I.X.} M B ~ X.X.",
"4XOXi.f.+X4X3X4X8XW.X.X.X.X.~ B B B N M 3 3 g N N 3 3 g B B B B T 4X4X4X3X3Xl.d./.3X3X4X4X$Xr.s.N.).).3X4X@X).[.I.| | M B ~ X.X.",
"` 4.8.8.J.T.T. . .I g l = - = $ # k B M 3 3 n / / D G n f 3 f f 6 i i H.T.T.~ ~ | O. .u 7 t r.s.N.).).3X4X3X#X$Xp g l B M C P P ",
"N I X.X.X.X.X.) ) n s d @ O O @ O g B M 3 3 n ) ) ) ) Z 3 3 3 3 3 3 3 I P.o._ ) ) ) _ % O * r.s.N.).).3X4X3X4X4Xu 3 d B B B B B ",
"C I X.X.....@._ _ n 3 d = = $ # # l B M 3 3 n ) ) / / D g g f f 5 f f W | .._ ) ) ) ) % @ : z.z.V.'.).3X4X3X$X$Xp 6 g C C B B B ",
"| X.X.X.[ ) _ c N N N B | | Q B B B B M 3 3 n ) ) % 3 N X.| C N N ) _ F M N ) ) ) ) ) f 3 r 6X3X(.y.i.3X3X@X).).I.X.X.X.X.W B B ",
"X.| X.X.[ ) / B B B B M | X.Q B B B B M 3 3 n ) ) f s x X.X.P M N _ ) D N N ) ) ) ) ) f s r 3X3X(.e.s.3X3X+X[.].I.X.X.X.X.E B B ",
"X.| X.X.W F F B B l g g M M l 1 1 l B M 3 3 n ) ) f s g U I M M N n n D D D n n n D D f 3 0 (.(.B.N.N.(.(.Z.M.N.I.X.} M B B B B ",
"X.| X.X.P B B N B g 3 3 3 3 % O O g N M 3 3 n ) ) f 3 g B B M M m 3 3 n ) ) s 3 g B B 4 3 , i.d.N.)._.r.d.d.r.i.8.X.} 3 3 g B B ",
"X.| X.X.P M M N B g 3 3 3 3 $ O O k z z 4 3 m _ H 3 2 6 B B M B M 3 3 V / / 3 3 g N N d s , i.i.V._.[.r.i.d.i.i.8.X.} 3 3 g N N ",
"X.X.X.X.X.X.X.X.X.X.X.X.X.X.E O O *.u.u.u.u.u.u.u.u.u.0.X.X.X.X.X.X.X.| | X.3 3 n _ _ $ O ; [._.+X3X6X[.[.C.r.i.w 3 3 3 3 3 3 3 ",
"X.X.X.X.X.X.X.X.X.X.| X.X.X.I O O &.s.d.d.d.i.i.i.i.r.<.| X.X.X.X.X.X.X.X.X.3 3 n ) ) $ O ; )._.+X3X3X|.].V.r.i.w 3 3 3 3 s 3 3 ",
"Q Q Q ~ | X.X.X.X.X.| X.X.X.I O O &.d.f.M.M.g.d.d.i.e.<.| X.X.X.| Q Q | X.X.g f v Z D $ O : .XoXOX@X@XB.V.M.r.r.w 3 3 3 3 f g g ",
"B B B M } X.X.X.X.X.X.X.X.X.I O   &.s.m.[.[.M.d.r.d.r.<.| X.X.X.| M B Q X.X.B N g 3 3 # O 7 6X3XOX]._.r.s.s.s.i.w 3 3 3 3 g B B ",
"M M M M } X.X.X.| | | X.X.X.I O   &.i.m.[.[.N.i.i.i.r.q.X.X.X.X.| B B Q X.X.B N g 3 3 @ O 7 8X3X,X].].i.d.d.d.i.w 3 3 3 3 g B M ",
"&Xv.k.t.k.k.k.k.k.2.g g g g g % 3 Y 8.7.Y Y Y ~ ~ < < w g g g g g B B l g g d 5 s 3 3 % % 1 7 7 0 e e ~ ~ ~ ~ ~ H G D D D n 3 3 ",
"_.Z.r.d.d.d.d.s.a.#.s s s s s s s ~ X...B M F ) ) s 3 s 3 3 s 3 d B B j s s s s s s s s 3 % O @ $ 3 & ) ) ) ) ) ) ) ) ) ) n 3 3 ",
"'.Z.g.m.M.M.M.s.a.-.f f f f f s 3 W ~ ~ C C H ) ) s s s d d 3 3 3 B B g s s f f f f f 3 3 3 $ = 4 g g _ ) ) ) ) ) ) ) ) ) n 3 3 ",
"d.M._._.#X3X$Xr.a.3.) ) ) ) D s s 3 3 g X.X.{ ) ) s 3 g B B 3 3 3 B B g s s ) ) ) ) _ f 3 g X.X.X.X.X._ ) ) ) ) ) ) ) _ ) n 3 3 ",
"s.M.[._.#X4X$Xe.d.3.) ) ) ) D s s s s g X.X.{ ) ) s 3 g B B 3 3 3 M B g s s _ ) ) ) ) f 3 g X.X.X.X.| _ ) ) ) ) ) ) ) ) ) n 3 3 ",
"V.B.[._. X.X.XN.N.5.n n / / D s s C I E I I F D D # # % g g 3 3 3 g g d s s n b Z ) ) f s g X.X.P g g f f n D D D D D n n % $ $ ",
"_.[.[.[.[.[.[.[.[.;.3 3 / ) A s s ~ X.| B B N N N O O # 3 3 3 3 3 3 3 3 s s 3 3 n ) ) f s g X.X.l @ O @ @ 1 B B B B l 3 3 # O O ",
"[.[.[.[.[.[.[.[.[.;.3 3 / ) A s s ~ X.| B B B N N O O # 3 3 3 3 3 3 3 3 3 3 3 3 n ) ) f 3 g X.X.k O O O O 1 B B B B l 3 3 # O O "
};
